<svg width="99" height="32" viewBox="0 0 99 32" fill="none" xmlns="http://www.w3.org/2000/svg">
<path d="M0.5 8C0.5 3.85786 3.85786 0.5 8 0.5H91C95.1421 0.5 98.5 3.85786 98.5 8V24C98.5 28.1421 95.1421 31.5 91 31.5H8C3.85787 31.5 0.5 28.1421 0.5 24V8Z" fill="#2C2C2C"/>
<path d="M0.5 8C0.5 3.85786 3.85786 0.5 8 0.5H91C95.1421 0.5 98.5 3.85786 98.5 8V24C98.5 28.1421 95.1421 31.5 91 31.5H8C3.85787 31.5 0.5 28.1421 0.5 24V8Z" stroke="#2C2C2C" stroke-linecap="round"/>
<path d="M19.376 8.768H20.688V23.264H19.376V8.768ZM16.256 14.048H19.76V15.136H16.256V14.048ZM12.464 10.848H13.536V13.008C13.536 16.128 11.744 19.216 9.456 20.4L8.672 19.344C10.752 18.32 12.464 15.584 12.464 13.008V10.848ZM12.736 10.848H13.792V13.008C13.792 15.424 15.472 18.064 17.568 19.056L16.784 20.096C14.496 18.96 12.736 15.984 12.736 13.008V10.848ZM9.2 10.256H17.072V11.36H9.2V10.256ZM27.0708 10.336H28.1588V11.504C28.1588 14.16 26.5588 16.384 24.1268 17.264L23.4548 16.208C25.6308 15.44 27.0708 13.568 27.0708 11.504V10.336ZM27.3108 10.336H28.3988V11.488C28.3988 13.376 29.7748 15.072 31.9028 15.776L31.2628 16.816C28.8468 16.016 27.3108 13.952 27.3108 11.488V10.336ZM23.8548 9.856H31.5828V10.944H23.8548V9.856ZM33.4068 8.784H34.7348V17.504H33.4068V8.784ZM34.3668 12.448H36.8788V13.568H34.3668V12.448ZM30.1268 17.888C33.0708 17.888 34.8788 18.864 34.8788 20.544C34.8788 22.24 33.0708 23.216 30.1268 23.216C27.1828 23.216 25.3748 22.24 25.3748 20.544C25.3748 18.864 27.1828 17.888 30.1268 17.888ZM30.1268 18.96C27.9828 18.96 26.6708 19.536 26.6708 20.544C26.6708 21.568 27.9828 22.176 30.1268 22.176C32.2708 22.176 33.5828 21.568 33.5828 20.544C33.5828 19.536 32.2708 18.96 30.1268 18.96ZM48.0295 8.784H49.3575V23.248H48.0295V8.784ZM49.0375 14.72H51.7255V15.84H49.0375V14.72ZM38.1575 11.088H46.6855V12.176H38.1575V11.088ZM42.4775 13.376C44.5255 13.376 45.9975 14.752 45.9975 16.704C45.9975 18.656 44.5255 20.032 42.4775 20.032C40.4455 20.032 38.9575 18.656 38.9575 16.704C38.9575 14.752 40.4455 13.376 42.4775 13.376ZM42.4775 14.48C41.1655 14.48 40.2215 15.392 40.2215 16.704C40.2215 18 41.1655 18.928 42.4775 18.928C43.7895 18.928 44.7335 18 44.7335 16.704C44.7335 15.392 43.7895 14.48 42.4775 14.48ZM41.7895 8.96H43.1175V11.584H41.7895V8.96ZM63.4843 8.784H64.8123V23.248H63.4843V8.784ZM59.2443 10.336H60.5563C60.5563 14.528 58.6683 18.192 53.8363 20.56L53.1323 19.488C57.3083 17.472 59.2443 14.4 59.2443 10.56V10.336ZM53.7883 10.336H59.8203V11.424H53.7883V10.336Z" fill="#F5F5F5"/>
<path d="M86.3333 22V16.6667H79.6667V22M79.6667 10V13.3333H85M87.6667 22H78.3333C77.9797 22 77.6406 21.8595 77.3905 21.6095C77.1405 21.3594 77 21.0203 77 20.6667V11.3333C77 10.9797 77.1405 10.6406 77.3905 10.3905C77.6406 10.1405 77.9797 10 78.3333 10H85.6667L89 13.3333V20.6667C89 21.0203 88.8595 21.3594 88.6095 21.6095C88.3594 21.8595 88.0203 22 87.6667 22Z" stroke="#F5F5F5" stroke-width="1.6" stroke-linecap="round" stroke-linejoin="round"/>
</svg>
