<svg width="350" height="52" viewBox="0 0 350 52" fill="none" xmlns="http://www.w3.org/2000/svg">
<rect width="350" height="52" rx="8" fill="#FAE64D"/>
<path d="M108.118 18.5259C103.361 18.5259 99.5255 21.8458 99.5255 25.8763C99.5255 28.4924 101.121 30.7832 103.515 32.0913L102.705 35.3648C102.689 35.4139 102.687 35.4665 102.698 35.517C102.709 35.5674 102.732 35.6135 102.766 35.6503C102.815 35.6972 102.879 35.7231 102.944 35.7233C102.998 35.7186 103.05 35.6954 103.091 35.6569L106.578 33.1139C107.092 33.1907 107.611 33.2306 108.13 33.2333C112.881 33.2333 116.723 29.9134 116.723 25.8763C116.723 21.8392 112.869 18.5259 108.118 18.5259Z" fill="#423630"/>
<path d="M140.398 29.3421C140.387 29.2117 140.382 29.0814 140.382 28.9511C140.382 28.8207 140.382 28.6904 140.382 28.56V26.214C140.078 26.2248 139.79 26.2302 139.518 26.2302C139.258 26.2194 139.024 26.2085 138.818 26.1977C138.644 26.1977 138.508 26.1977 138.41 26.1977C138.313 26.1977 138.22 26.1977 138.133 26.1977C138.047 26.1977 137.949 26.1977 137.84 26.1977C137.742 26.1977 137.612 26.1977 137.449 26.1977C137.145 26.1977 136.857 26.1705 136.586 26.1162C136.314 26.0619 136.053 25.9261 135.804 25.7089C135.641 25.5568 135.532 25.3939 135.478 25.2201C135.434 25.0355 135.472 24.8508 135.592 24.6662C135.744 24.4381 135.934 24.2915 136.162 24.2263C136.39 24.1503 136.624 24.096 136.863 24.0634C137.004 24.0416 137.091 24.0308 137.123 24.0308C137.156 24.0308 137.172 24.0308 137.172 24.0308C137.172 24.0308 137.183 24.0362 137.205 24.0471C137.237 24.0471 137.33 24.0416 137.482 24.0308H140.382V23.5094C140.382 23.3356 140.382 23.1184 140.382 22.8577C140.382 22.5862 140.371 22.3581 140.349 22.1735C140.338 22.1192 140.322 22.0431 140.3 21.9454C140.289 21.8476 140.257 21.7879 140.203 21.7662C140.148 21.7336 140.083 21.7227 140.007 21.7336C139.942 21.7336 139.877 21.7281 139.812 21.7173C139.736 21.7064 139.66 21.7064 139.583 21.7173C139.518 21.7281 139.448 21.7281 139.372 21.7173H138.101C137.916 21.7281 137.732 21.7281 137.547 21.7173C137.362 21.7064 137.178 21.7064 136.993 21.7173C136.906 21.7281 136.825 21.7336 136.749 21.7336C136.683 21.7227 136.607 21.7173 136.521 21.7173C136.401 21.7173 136.276 21.7118 136.146 21.701C136.015 21.6901 135.896 21.6467 135.787 21.5706C135.635 21.462 135.532 21.3263 135.478 21.1633C135.424 21.0004 135.396 20.8321 135.396 20.6583C135.385 20.4519 135.429 20.2455 135.527 20.0392C135.581 19.9088 135.652 19.8165 135.738 19.7622C135.793 19.7079 135.869 19.6644 135.967 19.6319C136.075 19.5884 136.168 19.5558 136.244 19.5341C136.472 19.4798 136.711 19.4526 136.96 19.4526C137.21 19.4418 137.455 19.4364 137.694 19.4364H141.033C141.175 19.4581 141.321 19.4798 141.473 19.5015C141.636 19.5124 141.783 19.545 141.913 19.5993C142 19.6319 142.082 19.6753 142.158 19.7296C142.245 19.7839 142.315 19.8491 142.369 19.9251C142.467 20.0772 142.522 20.2292 142.532 20.3813C142.554 20.5334 142.576 20.7017 142.598 20.8864C142.619 21.1905 142.63 21.4946 142.63 21.7987C142.63 22.092 142.63 22.3907 142.63 22.6948V28.1853C142.63 28.1962 142.63 28.2831 142.63 28.446C142.641 28.5981 142.646 28.7827 142.646 28.9999C142.646 29.2063 142.646 29.429 142.646 29.6679C142.646 29.896 142.641 30.097 142.63 30.2707C142.619 30.3794 142.603 30.4934 142.581 30.6129C142.56 30.7324 142.522 30.8464 142.467 30.955C142.424 31.0636 142.359 31.1614 142.272 31.2483C142.185 31.3352 142.071 31.4058 141.93 31.4601C141.745 31.5361 141.56 31.5741 141.376 31.5741C141.234 31.5741 141.093 31.547 140.952 31.4927C140.811 31.4275 140.713 31.3352 140.659 31.2157C140.485 30.8681 140.398 30.4825 140.398 30.0589V29.3421ZM147.111 24.1122C147.165 24.1122 147.214 24.1177 147.257 24.1285C147.311 24.1394 147.366 24.1448 147.42 24.1448C147.474 24.1557 147.534 24.1666 147.599 24.1774C147.664 24.1774 147.73 24.1828 147.795 24.1937C147.914 24.2154 148.034 24.2589 148.153 24.324C148.273 24.3784 148.36 24.4652 148.414 24.5847C148.49 24.7042 148.528 24.8454 148.528 25.0083C148.528 25.0952 148.523 25.1767 148.512 25.2527C148.512 25.3179 148.501 25.3939 148.479 25.4808C148.457 25.5677 148.43 25.66 148.398 25.7578C148.376 25.8555 148.327 25.9316 148.251 25.9859C148.099 26.0945 147.952 26.1651 147.811 26.1977C147.637 26.2194 147.426 26.2248 147.176 26.214C146.926 26.2031 146.714 26.2031 146.54 26.214C146.529 26.214 146.519 26.2194 146.508 26.2302H146.491L146.475 26.2465V26.2954C146.475 26.4258 146.475 26.5832 146.475 26.7679C146.475 26.9417 146.475 27.1263 146.475 27.3218C146.475 27.5065 146.475 27.6911 146.475 27.8758C146.475 28.0496 146.475 28.207 146.475 28.3482C146.497 28.913 146.497 29.467 146.475 30.0101V30.2382C146.475 30.3794 146.47 30.5368 146.459 30.7106C146.459 30.8736 146.448 31.0365 146.426 31.1994C146.405 31.3623 146.367 31.5198 146.312 31.6719C146.258 31.8131 146.182 31.9326 146.084 32.0303C145.954 32.1824 145.78 32.2584 145.563 32.2584C145.563 32.2584 145.552 32.253 145.53 32.2421C145.269 32.2312 145.058 32.1552 144.895 32.014C144.743 31.8728 144.623 31.699 144.536 31.4927C144.46 31.2863 144.411 31.0745 144.39 30.8573C144.368 30.6292 144.357 30.4282 144.357 30.2544V20.5768C144.357 20.566 144.357 20.5171 144.357 20.4302C144.357 20.3324 144.368 20.2238 144.39 20.1043C144.411 19.974 144.444 19.8437 144.487 19.7133C144.542 19.5721 144.612 19.4581 144.699 19.3712C144.775 19.2952 144.884 19.2408 145.025 19.2083C145.177 19.1648 145.313 19.1431 145.432 19.1431C145.671 19.1431 145.872 19.2246 146.035 19.3875C146.187 19.5395 146.274 19.7025 146.296 19.8762C146.328 20.0392 146.356 20.213 146.377 20.3976C146.388 20.441 146.394 20.5062 146.394 20.5931C146.415 20.7778 146.426 20.9678 146.426 21.1633C146.437 21.3588 146.448 21.5544 146.459 21.7499C146.459 21.8693 146.459 21.9888 146.459 22.1083C146.47 22.2169 146.475 22.331 146.475 22.4504C146.464 22.5156 146.459 22.5808 146.459 22.6459C146.47 22.7002 146.475 22.7546 146.475 22.8089V23.7212C146.475 23.7755 146.475 23.8353 146.475 23.9004C146.475 23.9656 146.486 24.0254 146.508 24.0797C146.508 24.0905 146.562 24.096 146.671 24.096C146.779 24.096 146.839 24.096 146.85 24.096C146.948 24.1177 147.024 24.1231 147.078 24.1122H147.111ZM153.922 29.3421C153.911 29.2117 153.906 29.0814 153.906 28.9511C153.906 28.8207 153.906 28.6904 153.906 28.56V26.214C153.602 26.2248 153.314 26.2302 153.042 26.2302C152.782 26.2194 152.548 26.2085 152.342 26.1977C152.168 26.1977 152.032 26.1977 151.934 26.1977C151.837 26.1977 151.744 26.1977 151.657 26.1977C151.57 26.1977 151.473 26.1977 151.364 26.1977C151.266 26.1977 151.136 26.1977 150.973 26.1977C150.669 26.1977 150.381 26.1705 150.11 26.1162C149.838 26.0619 149.577 25.9261 149.328 25.7089C149.165 25.5568 149.056 25.3939 149.002 25.2201C148.958 25.0355 148.996 24.8508 149.116 24.6662C149.268 24.4381 149.458 24.2915 149.686 24.2263C149.914 24.1503 150.148 24.096 150.387 24.0634C150.528 24.0416 150.615 24.0308 150.647 24.0308C150.68 24.0308 150.696 24.0308 150.696 24.0308C150.696 24.0308 150.707 24.0362 150.729 24.0471C150.761 24.0471 150.854 24.0416 151.006 24.0308H153.906V23.5094C153.906 23.3356 153.906 23.1184 153.906 22.8577C153.906 22.5862 153.895 22.3581 153.873 22.1735C153.862 22.1192 153.846 22.0431 153.824 21.9454C153.813 21.8476 153.781 21.7879 153.726 21.7662C153.672 21.7336 153.607 21.7227 153.531 21.7336C153.466 21.7336 153.401 21.7281 153.335 21.7173C153.259 21.7064 153.183 21.7064 153.107 21.7173C153.042 21.7281 152.972 21.7281 152.896 21.7173H151.625C151.44 21.7281 151.255 21.7281 151.071 21.7173C150.886 21.7064 150.702 21.7064 150.517 21.7173C150.43 21.7281 150.349 21.7336 150.273 21.7336C150.207 21.7227 150.131 21.7173 150.044 21.7173C149.925 21.7173 149.8 21.7118 149.67 21.701C149.539 21.6901 149.42 21.6467 149.311 21.5706C149.159 21.462 149.056 21.3263 149.002 21.1633C148.947 21.0004 148.92 20.8321 148.92 20.6583C148.909 20.4519 148.953 20.2455 149.051 20.0392C149.105 19.9088 149.175 19.8165 149.262 19.7622C149.317 19.7079 149.393 19.6644 149.49 19.6319C149.599 19.5884 149.691 19.5558 149.767 19.5341C149.996 19.4798 150.234 19.4526 150.484 19.4526C150.734 19.4418 150.979 19.4364 151.217 19.4364H154.557C154.699 19.4581 154.845 19.4798 154.997 19.5015C155.16 19.5124 155.307 19.545 155.437 19.5993C155.524 19.6319 155.606 19.6753 155.682 19.7296C155.768 19.7839 155.839 19.8491 155.893 19.9251C155.991 20.0772 156.045 20.2292 156.056 20.3813C156.078 20.5334 156.1 20.7017 156.121 20.8864C156.143 21.1905 156.154 21.4946 156.154 21.7987C156.154 22.092 156.154 22.3907 156.154 22.6948V28.1853C156.154 28.1962 156.154 28.2831 156.154 28.446C156.165 28.5981 156.17 28.7827 156.17 28.9999C156.17 29.2063 156.17 29.429 156.17 29.6679C156.17 29.896 156.165 30.097 156.154 30.2707C156.143 30.3794 156.127 30.4934 156.105 30.6129C156.083 30.7324 156.045 30.8464 155.991 30.955C155.948 31.0636 155.882 31.1614 155.796 31.2483C155.709 31.3352 155.595 31.4058 155.453 31.4601C155.269 31.5361 155.084 31.5741 154.9 31.5741C154.758 31.5741 154.617 31.547 154.476 31.4927C154.335 31.4275 154.237 31.3352 154.183 31.2157C154.009 30.8681 153.922 30.4825 153.922 30.0589V29.3421ZM160.634 24.1122C160.689 24.1122 160.738 24.1177 160.781 24.1285C160.835 24.1394 160.89 24.1448 160.944 24.1448C160.998 24.1557 161.058 24.1666 161.123 24.1774C161.188 24.1774 161.254 24.1828 161.319 24.1937C161.438 24.2154 161.558 24.2589 161.677 24.324C161.797 24.3784 161.883 24.4652 161.938 24.5847C162.014 24.7042 162.052 24.8454 162.052 25.0083C162.052 25.0952 162.046 25.1767 162.036 25.2527C162.036 25.3179 162.025 25.3939 162.003 25.4808C161.981 25.5677 161.954 25.66 161.922 25.7578C161.9 25.8555 161.851 25.9316 161.775 25.9859C161.623 26.0945 161.476 26.1651 161.335 26.1977C161.161 26.2194 160.949 26.2248 160.7 26.214C160.45 26.2031 160.238 26.2031 160.064 26.214C160.053 26.214 160.042 26.2194 160.032 26.2302H160.015L159.999 26.2465V26.2954C159.999 26.4258 159.999 26.5832 159.999 26.7679C159.999 26.9417 159.999 27.1263 159.999 27.3218C159.999 27.5065 159.999 27.6911 159.999 27.8758C159.999 28.0496 159.999 28.207 159.999 28.3482C160.021 28.913 160.021 29.467 159.999 30.0101V30.2382C159.999 30.3794 159.994 30.5368 159.983 30.7106C159.983 30.8736 159.972 31.0365 159.95 31.1994C159.928 31.3623 159.89 31.5198 159.836 31.6719C159.782 31.8131 159.706 31.9326 159.608 32.0303C159.478 32.1824 159.304 32.2584 159.087 32.2584C159.087 32.2584 159.076 32.253 159.054 32.2421C158.793 32.2312 158.582 32.1552 158.419 32.014C158.267 31.8728 158.147 31.699 158.06 31.4927C157.984 31.2863 157.935 31.0745 157.914 30.8573C157.892 30.6292 157.881 30.4282 157.881 30.2544V20.5768C157.881 20.566 157.881 20.5171 157.881 20.4302C157.881 20.3324 157.892 20.2238 157.914 20.1043C157.935 19.974 157.968 19.8437 158.011 19.7133C158.066 19.5721 158.136 19.4581 158.223 19.3712C158.299 19.2952 158.408 19.2408 158.549 19.2083C158.701 19.1648 158.837 19.1431 158.956 19.1431C159.195 19.1431 159.396 19.2246 159.559 19.3875C159.711 19.5395 159.798 19.7025 159.82 19.8762C159.852 20.0392 159.88 20.213 159.901 20.3976C159.912 20.441 159.918 20.5062 159.918 20.5931C159.939 20.7778 159.95 20.9678 159.95 21.1633C159.961 21.3588 159.972 21.5544 159.983 21.7499C159.983 21.8693 159.983 21.9888 159.983 22.1083C159.994 22.2169 159.999 22.331 159.999 22.4504C159.988 22.5156 159.983 22.5808 159.983 22.6459C159.994 22.7002 159.999 22.7546 159.999 22.8089V23.7212C159.999 23.7755 159.999 23.8353 159.999 23.9004C159.999 23.9656 160.01 24.0254 160.032 24.0797C160.032 24.0905 160.086 24.096 160.195 24.096C160.303 24.096 160.363 24.096 160.374 24.096C160.471 24.1177 160.548 24.1231 160.602 24.1122H160.634ZM173.539 29.2769C173.572 29.2878 173.604 29.2932 173.637 29.2932C173.67 29.2823 173.702 29.2769 173.735 29.2769C173.919 29.2986 174.088 29.3366 174.24 29.391C174.403 29.4344 174.56 29.5213 174.712 29.6516C174.864 29.8037 174.94 29.9938 174.94 30.2219C174.94 30.3413 174.919 30.4717 174.875 30.6129C174.843 30.7432 174.794 30.8464 174.729 30.9224C174.642 31.0093 174.533 31.0745 174.403 31.1179C174.272 31.1614 174.147 31.194 174.028 31.2157C173.908 31.2266 173.8 31.232 173.702 31.232C173.615 31.232 173.566 31.232 173.555 31.232H164.432C164.377 31.232 164.323 31.2374 164.269 31.2483C164.215 31.2483 164.16 31.2483 164.106 31.2483C163.878 31.2591 163.633 31.2591 163.373 31.2483C163.112 31.2266 162.889 31.1397 162.705 30.9876C162.477 30.7812 162.363 30.5477 162.363 30.287C162.363 30.1241 162.412 29.9558 162.509 29.782C162.607 29.6082 162.737 29.4887 162.9 29.4235C163.118 29.3366 163.34 29.2932 163.568 29.2932C163.807 29.2932 164.046 29.2878 164.285 29.2769H164.367C165.312 29.2552 166.284 29.2552 167.283 29.2769L167.267 26.8982C166.941 26.8765 166.62 26.8385 166.305 26.7842C165.99 26.7299 165.686 26.643 165.393 26.5235C165.1 26.404 164.823 26.252 164.562 26.0673C164.312 25.8718 164.09 25.6329 163.894 25.3505C163.644 25.0138 163.476 24.6553 163.389 24.2752C163.313 23.895 163.275 23.4986 163.275 23.0858C163.275 22.2386 163.498 21.5326 163.943 20.9678C164.399 20.3922 165.018 19.9794 165.8 19.7296C166.322 19.5558 166.848 19.4472 167.381 19.4038C167.924 19.3495 168.467 19.344 169.01 19.3875C169.455 19.4201 169.901 19.4635 170.346 19.5178C170.791 19.5721 171.22 19.6916 171.633 19.8762C171.818 19.9631 171.997 20.0663 172.171 20.1858C172.344 20.3053 172.507 20.4465 172.659 20.6094C173.04 21.0221 173.3 21.4675 173.441 21.9454C173.583 22.4233 173.632 22.9338 173.588 23.4768C173.545 24.096 173.398 24.6227 173.148 25.0572C172.898 25.4808 172.578 25.8338 172.187 26.1162C171.807 26.3877 171.367 26.5887 170.867 26.719C170.378 26.8494 169.868 26.9145 169.336 26.9145L169.368 29.2769C169.672 29.2769 169.949 29.2769 170.199 29.2769C170.449 29.266 170.693 29.2606 170.932 29.2606C171.171 29.2606 171.41 29.2606 171.649 29.2606C171.888 29.2606 172.149 29.266 172.431 29.2769C172.627 29.2878 172.817 29.2878 173.002 29.2769C173.186 29.2552 173.365 29.2552 173.539 29.2769ZM171.454 23.7212C171.486 23.58 171.497 23.4443 171.486 23.3139C171.465 22.7491 171.285 22.331 170.949 22.0594C170.623 21.777 170.199 21.6032 169.678 21.5381C169.374 21.5055 168.999 21.4729 168.554 21.4403C168.108 21.3969 167.669 21.4077 167.234 21.4729C166.81 21.5381 166.436 21.6738 166.11 21.8802C165.784 22.0757 165.589 22.3907 165.523 22.8252C165.491 23.0858 165.491 23.3356 165.523 23.5746C165.567 23.8136 165.659 24.0254 165.8 24.21C165.942 24.3946 166.137 24.5521 166.387 24.6825C166.637 24.8128 166.957 24.8943 167.348 24.9269C167.728 24.9703 168.114 25.0083 168.505 25.0409C168.907 25.0735 169.298 25.0518 169.678 24.9757C169.863 24.9432 170.047 24.8997 170.232 24.8454C170.427 24.7802 170.607 24.6988 170.77 24.601C170.932 24.5033 171.074 24.3838 171.193 24.2426C171.313 24.0905 171.399 23.9167 171.454 23.7212ZM186.761 29.2606C186.793 29.2715 186.826 29.2769 186.859 29.2769C186.891 29.266 186.924 29.2606 186.956 29.2606C187.141 29.2823 187.309 29.3204 187.461 29.3747C187.624 29.4181 187.782 29.505 187.934 29.6353C188.086 29.7874 188.162 29.9775 188.162 30.2056C188.162 30.325 188.14 30.4554 188.097 30.5966C188.064 30.7269 188.015 30.8301 187.95 30.9061C187.863 30.993 187.755 31.0582 187.624 31.1016C187.494 31.1451 187.369 31.1777 187.25 31.1994C187.13 31.2103 187.021 31.2157 186.924 31.2157C186.837 31.2157 186.788 31.2157 186.777 31.2157H177.653C177.599 31.2157 177.545 31.2211 177.49 31.232C177.436 31.232 177.382 31.232 177.328 31.232C177.099 31.2428 176.855 31.2428 176.594 31.232C176.334 31.2103 176.111 31.1234 175.926 30.9713C175.698 30.7649 175.584 30.5314 175.584 30.2707C175.584 30.1078 175.633 29.9395 175.731 29.7657C175.829 29.5919 175.959 29.4724 176.122 29.4072C176.339 29.3204 176.562 29.2769 176.79 29.2769C177.029 29.2769 177.268 29.2715 177.507 29.2606H177.588C178.631 29.2389 179.695 29.2389 180.782 29.2606L180.765 27.7291H179.071C178.854 27.7291 178.626 27.7291 178.387 27.7291C178.158 27.7291 177.925 27.7237 177.686 27.7128C177.458 27.6911 177.268 27.5771 177.116 27.3707C176.964 27.1643 176.877 26.92 176.855 26.6376C176.844 26.5398 176.833 26.3823 176.822 26.1651C176.822 25.9478 176.817 25.7198 176.806 25.4808C176.806 25.2418 176.806 25.0192 176.806 24.8128C176.806 24.6064 176.806 24.4598 176.806 24.3729V23.9819C176.795 23.8516 176.795 23.7158 176.806 23.5746C176.828 23.4225 176.888 23.2868 176.985 23.1673C177.127 22.9826 177.322 22.8686 177.572 22.8252C177.833 22.7708 178.082 22.7437 178.321 22.7437C178.376 22.7437 178.463 22.7491 178.582 22.76C178.712 22.7708 178.816 22.7708 178.892 22.76H184.675V21.3914H178.729C178.674 21.3914 178.615 21.3969 178.549 21.4077C178.484 21.4077 178.425 21.4077 178.37 21.4077C178.305 21.4077 178.234 21.4132 178.158 21.424C178.093 21.424 178.028 21.424 177.963 21.424C177.735 21.424 177.55 21.4023 177.409 21.3588C177.224 21.3154 177.072 21.1905 176.953 20.9841C176.812 20.7343 176.774 20.4682 176.839 20.1858C176.893 19.9903 177.018 19.8437 177.213 19.7459C177.409 19.6482 177.567 19.5884 177.686 19.5667C177.773 19.545 177.854 19.5341 177.93 19.5341C178.017 19.5341 178.11 19.5341 178.207 19.5341H178.778C178.951 19.5341 179.163 19.5395 179.413 19.5504C179.674 19.5504 179.945 19.5504 180.228 19.5504C180.51 19.5504 180.792 19.5504 181.075 19.5504C181.368 19.5395 181.634 19.5341 181.873 19.5341H185.164C185.349 19.5341 185.533 19.5395 185.718 19.5504C185.903 19.5613 186.082 19.5938 186.256 19.6482C186.516 19.7242 186.685 19.8925 186.761 20.1532C186.837 20.403 186.875 20.6474 186.875 20.8864V23.037C186.875 23.1238 186.864 23.2379 186.842 23.3791C186.831 23.5203 186.81 23.6669 186.777 23.819C186.745 23.971 186.696 24.1177 186.63 24.2589C186.576 24.3892 186.506 24.4815 186.419 24.5358C186.267 24.6227 186.12 24.677 185.979 24.6988C185.838 24.7096 185.702 24.7096 185.571 24.6988H179.136V26.0022H185.588C185.686 26.0022 185.778 26.0022 185.865 26.0022C185.962 26.0022 186.055 26.0076 186.142 26.0184C186.305 26.0293 186.451 26.0782 186.582 26.1651C186.723 26.2411 186.821 26.3714 186.875 26.5561C186.929 26.7733 186.918 26.9797 186.842 27.1752C186.777 27.3707 186.647 27.5119 186.451 27.5988C186.321 27.6531 186.185 27.6911 186.044 27.7128C185.914 27.7237 185.789 27.7291 185.669 27.7291H182.867L182.883 29.2606C183.144 29.2606 183.383 29.2606 183.6 29.2606C183.828 29.2498 184.051 29.2443 184.268 29.2443C184.496 29.2443 184.719 29.2498 184.936 29.2606C185.164 29.2606 185.403 29.2606 185.653 29.2606C185.848 29.2715 186.039 29.2715 186.223 29.2606C186.408 29.2389 186.587 29.2389 186.761 29.2606ZM200.174 29.6028C200.207 29.6571 200.234 29.7168 200.256 29.782C200.288 29.8363 200.315 29.9014 200.337 29.9775C200.37 30.097 200.391 30.2273 200.402 30.3685C200.413 30.5097 200.38 30.6563 200.304 30.8084C200.131 31.1451 199.892 31.3243 199.588 31.346H199.571C199.376 31.346 199.202 31.2809 199.05 31.1505C198.909 31.0202 198.757 30.8627 198.594 30.678C198.431 30.5043 198.284 30.3305 198.154 30.1567C198.023 29.9829 197.904 29.8254 197.795 29.6842C197.785 29.6625 197.768 29.6408 197.747 29.619C197.736 29.5865 197.719 29.5484 197.698 29.505C197.426 29.0923 197.225 28.8044 197.095 28.6415C196.964 28.4786 196.888 28.3917 196.867 28.3808C196.845 28.4026 196.791 28.4623 196.704 28.56C196.628 28.6469 196.579 28.7012 196.557 28.723C196.535 28.7556 196.514 28.7881 196.492 28.8207C196.47 28.8424 196.449 28.8642 196.427 28.8859C196.329 28.9945 196.248 29.1086 196.182 29.228C196.128 29.3366 196.058 29.4507 195.971 29.5702C195.884 29.6896 195.791 29.8037 195.694 29.9123C195.607 30.0209 195.514 30.1295 195.417 30.2382C195.373 30.2816 195.33 30.3359 195.286 30.4011C195.123 30.5857 194.95 30.7649 194.765 30.9387C194.591 31.1125 194.385 31.2428 194.146 31.3297C194.048 31.3732 193.94 31.3949 193.82 31.3949C193.57 31.3949 193.348 31.2972 193.152 31.1016C192.967 30.917 192.875 30.6889 192.875 30.4174C192.886 30.2219 192.935 30.0372 193.022 29.8634C193.12 29.6896 193.212 29.5267 193.299 29.3747L193.331 29.3095C193.364 29.2552 193.396 29.2063 193.429 29.1629C193.462 29.1194 193.494 29.076 193.527 29.0325C193.549 28.9999 193.565 28.9728 193.576 28.9511C193.597 28.9185 193.619 28.8913 193.641 28.8696C193.771 28.6741 193.885 28.5166 193.983 28.3971C194.005 28.3754 194.016 28.3591 194.016 28.3482C194.026 28.3265 194.043 28.3048 194.064 28.2831C194.086 28.2396 194.108 28.2125 194.13 28.2016L194.162 28.1527C194.206 28.0984 194.244 28.0496 194.276 28.0061C194.309 27.9518 194.341 27.8975 194.374 27.8432C194.45 27.7237 194.515 27.6151 194.57 27.5173C194.635 27.4087 194.694 27.3055 194.749 27.2078C194.814 27.0883 194.879 26.9743 194.944 26.8656C195.009 26.7462 195.085 26.6321 195.172 26.5235C195.227 26.4366 195.281 26.3497 195.335 26.2628C195.4 26.1759 195.46 26.089 195.514 26.0022L195.58 25.9044C195.656 25.7849 195.71 25.6817 195.743 25.5948C195.786 25.4971 195.813 25.3885 195.824 25.269C195.846 25.0952 195.857 24.9269 195.857 24.7639C195.857 24.5902 195.857 24.4055 195.857 24.21V21.5218C195.857 21.4132 195.857 21.31 195.857 21.2122C195.857 21.1145 195.862 21.0113 195.873 20.9027C195.873 20.7832 195.884 20.6637 195.905 20.5442C195.927 20.4248 195.954 20.3161 195.987 20.2184C196.041 20.0772 196.112 19.936 196.199 19.7948C196.253 19.7079 196.329 19.6427 196.427 19.5993C196.535 19.5558 196.65 19.5232 196.769 19.5015L196.802 19.4852C196.888 19.4635 196.964 19.4581 197.03 19.4689C197.106 19.4689 197.187 19.4852 197.274 19.5178C197.383 19.5613 197.464 19.6101 197.518 19.6644C197.573 19.7079 197.616 19.7676 197.649 19.8437C197.681 19.9197 197.714 20.0012 197.747 20.088C197.844 20.2944 197.909 20.5605 197.942 20.8864C197.985 21.3426 198.013 21.8259 198.023 22.3364C198.034 22.836 198.04 23.3139 198.04 23.7701C198.051 24.0525 198.056 24.3349 198.056 24.6173C198.056 24.8888 198.067 25.1604 198.089 25.4319C198.1 25.6709 198.159 25.8935 198.268 26.0999C198.387 26.3063 198.507 26.5126 198.626 26.719C198.746 26.958 198.871 27.1969 199.001 27.4359C199.131 27.664 199.267 27.8921 199.408 28.1202C199.463 28.2288 199.517 28.3374 199.571 28.446C199.636 28.5438 199.702 28.6469 199.767 28.7556C199.788 28.8099 199.81 28.8587 199.832 28.9022C199.865 28.9456 199.892 28.9891 199.913 29.0325C199.935 29.0868 199.962 29.1466 199.995 29.2117C200.027 29.266 200.055 29.3204 200.076 29.3747L200.125 29.505L200.174 29.6028ZM204.28 30.9713C204.258 31.1016 204.242 31.232 204.231 31.3623C204.22 31.4818 204.193 31.6067 204.149 31.737C204.128 31.7805 204.111 31.8185 204.101 31.8511C204.09 31.8837 204.073 31.9217 204.052 31.9651C203.976 32.1172 203.878 32.2367 203.758 32.3236C203.509 32.4756 203.232 32.5136 202.927 32.4376C202.754 32.405 202.612 32.3399 202.504 32.2421C202.406 32.1552 202.33 32.0412 202.276 31.9C202.232 31.7696 202.194 31.6393 202.162 31.509C202.14 31.3786 202.129 31.2646 202.129 31.1668C202.129 31.0691 202.129 31.0148 202.129 31.0039V20.9352C202.129 20.8049 202.129 20.6637 202.129 20.5116C202.129 20.3596 202.14 20.2075 202.162 20.0555C202.183 19.9034 202.216 19.7622 202.259 19.6319C202.303 19.5015 202.363 19.3983 202.439 19.3223C202.558 19.2028 202.683 19.1322 202.813 19.1105C202.944 19.0779 203.085 19.0616 203.237 19.0616C203.422 19.0616 203.59 19.1159 203.742 19.2246C203.905 19.3223 204.019 19.4635 204.084 19.6482C204.182 19.8762 204.236 20.1152 204.247 20.365C204.258 20.6148 204.269 20.8646 204.28 21.1145V21.1959C204.301 22.0323 204.307 22.8903 204.296 23.7701C204.285 24.6499 204.28 25.4808 204.28 26.2628V30.3848C204.28 30.4825 204.28 30.5803 204.28 30.678C204.291 30.7758 204.291 30.8736 204.28 30.9713ZM210.209 21.1308C210.209 21.1308 210.204 21.1959 210.193 21.3263C210.193 21.4566 210.193 21.6032 210.193 21.7662C210.193 21.9291 210.193 22.0811 210.193 22.2223C210.204 22.3635 210.209 22.445 210.209 22.4667C210.264 22.521 210.361 22.6134 210.503 22.7437C210.644 22.8632 210.763 22.9664 210.861 23.0532C210.97 23.1401 211.078 23.2379 211.187 23.3465C211.306 23.4443 211.426 23.5529 211.545 23.6724C211.621 23.7484 211.692 23.8244 211.757 23.9004C211.822 23.9656 211.882 24.0254 211.936 24.0797C212.143 24.286 212.349 24.5087 212.555 24.7476C212.762 24.9866 212.903 25.231 212.979 25.4808C213.012 25.5786 213.017 25.6872 212.995 25.8066C212.974 25.9261 212.903 26.0293 212.784 26.1162C212.599 26.2248 212.403 26.2791 212.197 26.2791C211.958 26.2791 211.73 26.2302 211.513 26.1325C211.296 26.0347 211.122 25.937 210.991 25.8392C210.785 25.6872 210.595 25.5297 210.421 25.3668C210.247 25.193 210.074 25.0192 209.9 24.8454C209.78 24.7259 209.645 24.5902 209.493 24.4381C209.34 24.2752 209.188 24.134 209.036 24.0145L208.596 24.4544C208.52 24.5304 208.444 24.6064 208.368 24.6825C208.292 24.7476 208.222 24.8182 208.157 24.8943C208.015 25.0463 207.869 25.2038 207.717 25.3668C207.565 25.5188 207.391 25.6654 207.195 25.8066C206.75 26.1325 206.332 26.2954 205.941 26.2954C205.886 26.2954 205.838 26.2954 205.794 26.2954C205.762 26.2954 205.718 26.2846 205.664 26.2628C205.425 26.2085 205.267 26.1108 205.191 25.9696C205.115 25.8501 205.088 25.7143 205.11 25.5623C205.142 25.4102 205.191 25.2744 205.257 25.155C205.343 25.0355 205.441 24.9214 205.55 24.8128C205.658 24.6933 205.767 24.5739 205.876 24.4544C205.973 24.3458 206.125 24.1937 206.332 23.9982C206.549 23.7918 206.766 23.5855 206.983 23.3791C207.201 23.1619 207.402 22.9664 207.586 22.7926C207.771 22.6188 207.885 22.5102 207.928 22.4667V21.1308H206.886C206.755 21.1308 206.603 21.1362 206.43 21.147C206.256 21.147 206.082 21.1362 205.908 21.1145C205.745 21.0927 205.593 21.0493 205.452 20.9841C205.311 20.9081 205.208 20.7886 205.142 20.6257C205.088 20.5062 205.05 20.3704 205.028 20.2184C205.018 20.0663 205.028 19.9251 205.061 19.7948C205.104 19.6427 205.202 19.5395 205.354 19.4852C205.506 19.4201 205.653 19.3766 205.794 19.3549C205.816 19.3549 205.903 19.3549 206.055 19.3549C206.218 19.3549 206.392 19.3549 206.576 19.3549C206.761 19.3549 206.935 19.3549 207.098 19.3549C207.26 19.3549 207.358 19.3495 207.391 19.3386H211.203C211.638 19.3386 212.002 19.3658 212.295 19.4201C212.599 19.4744 212.843 19.6101 213.028 19.8274C213.082 19.8925 213.115 19.9794 213.126 20.088C213.147 20.1967 213.147 20.3107 213.126 20.4302C213.115 20.5388 213.082 20.642 213.028 20.7397C212.984 20.8375 212.919 20.9081 212.832 20.9515C212.746 20.9841 212.642 21.0221 212.523 21.0656C212.403 21.0982 212.3 21.1199 212.213 21.1308C212.061 21.1416 211.904 21.147 211.741 21.147C211.589 21.1362 211.437 21.1308 211.285 21.1308H210.209ZM215.455 27.6803C215.912 27.6803 216.243 27.778 216.449 27.9735C216.667 28.169 216.775 28.3917 216.775 28.6415V29.5702C216.775 29.6028 216.775 29.6842 216.775 29.8146C216.775 29.934 216.775 30.0644 216.775 30.2056C216.775 30.3468 216.775 30.4771 216.775 30.5966C216.786 30.7161 216.791 30.7921 216.791 30.8247C216.791 30.9442 216.791 31.0636 216.791 31.1831C216.791 31.3026 216.786 31.4221 216.775 31.5415C216.753 31.7696 216.661 31.9543 216.498 32.0955C216.346 32.2367 216.145 32.3073 215.895 32.3073C215.841 32.3073 215.743 32.3018 215.602 32.291C215.472 32.291 215.379 32.2801 215.325 32.2584C215.173 32.215 215.054 32.1498 214.967 32.0629C214.891 31.976 214.831 31.8782 214.788 31.7696C214.744 31.661 214.717 31.547 214.706 31.4275C214.695 31.2972 214.684 31.1722 214.673 31.0528C214.673 31.0093 214.673 30.917 214.673 30.7758C214.673 30.6346 214.668 30.488 214.657 30.3359C214.657 30.173 214.652 30.0264 214.641 29.896C214.63 29.7548 214.619 29.6625 214.608 29.619C214.576 29.6082 214.489 29.5973 214.348 29.5865C214.206 29.5756 213.929 29.5702 213.517 29.5702C213.169 29.5702 212.952 29.5756 212.865 29.5865C212.789 29.5865 212.746 29.5865 212.735 29.5865H206.853C206.842 29.5865 206.799 29.5756 206.723 29.5539C206.658 29.5322 206.582 29.4996 206.495 29.4561C206.408 29.4018 206.326 29.3366 206.25 29.2606C206.174 29.1846 206.131 29.0923 206.12 28.9836C206.055 28.56 206.12 28.2342 206.316 28.0061C206.446 27.854 206.587 27.7672 206.739 27.7454C206.891 27.7128 206.973 27.6911 206.983 27.6803H215.455ZM216.759 24.0145V25.4971C216.748 25.6166 216.732 25.7415 216.71 25.8718C216.688 25.9913 216.645 26.1108 216.58 26.2302C216.514 26.3606 216.422 26.4692 216.303 26.5561C216.216 26.6104 216.113 26.6538 215.993 26.6864C215.885 26.7082 215.787 26.719 215.7 26.719C215.613 26.719 215.521 26.7136 215.423 26.7027C215.325 26.681 215.244 26.6484 215.179 26.605C215.07 26.5398 214.983 26.4583 214.918 26.3606C214.853 26.2628 214.798 26.1705 214.755 26.0836C214.722 25.9859 214.701 25.9044 214.69 25.8392C214.679 25.7632 214.673 25.7252 214.673 25.7252V20.3487C214.663 20.3053 214.668 20.1858 214.69 19.9903C214.711 19.7948 214.755 19.6319 214.82 19.5015C214.874 19.3929 214.967 19.306 215.097 19.2408C215.238 19.1757 215.385 19.1322 215.537 19.1105C215.722 19.0888 215.906 19.0996 216.091 19.1431C216.276 19.1865 216.411 19.2571 216.498 19.3549C216.563 19.4418 216.607 19.5287 216.629 19.6156C216.661 19.6916 216.688 19.7731 216.71 19.86C216.743 19.9686 216.759 20.0826 216.759 20.2021C216.77 20.3216 216.77 20.441 216.759 20.5605V21.6847V21.8313C216.759 21.8856 216.753 21.9454 216.743 22.0105C216.743 22.0648 216.748 22.13 216.759 22.206C216.802 22.206 216.884 22.2115 217.003 22.2223C217.123 22.2223 217.248 22.2278 217.378 22.2386C217.508 22.2386 217.633 22.2441 217.753 22.2549C217.872 22.2658 217.959 22.2766 218.013 22.2875C218.231 22.331 218.383 22.3961 218.47 22.483C218.556 22.559 218.611 22.6568 218.632 22.7763C218.665 22.8958 218.681 23.037 218.681 23.1999C218.681 23.3519 218.649 23.4823 218.584 23.5909C218.453 23.8081 218.258 23.933 217.997 23.9656C217.736 23.9873 217.449 24.0036 217.134 24.0145H216.759ZM223.111 23.0695C223.698 23.0913 224.192 23.2325 224.594 23.4931C224.996 23.7538 225.321 24.0905 225.571 24.5033C225.821 24.916 225.995 25.383 226.093 25.9044C226.19 26.4258 226.228 26.9525 226.207 27.4848C226.196 28.017 226.12 28.5383 225.979 29.0488C225.848 29.5593 225.674 30.0101 225.457 30.4011C225.218 30.8247 224.882 31.1505 224.447 31.3786C224.023 31.5958 223.567 31.7208 223.079 31.7533C222.59 31.7859 222.106 31.7208 221.628 31.5578C221.161 31.3949 220.765 31.1397 220.439 30.7921C220.157 30.488 219.956 30.173 219.836 29.8471C219.717 29.5104 219.63 29.1411 219.576 28.7393C219.521 28.3374 219.478 27.9518 219.445 27.5825C219.413 27.2024 219.407 26.8276 219.429 26.4583C219.451 26.089 219.51 25.7252 219.608 25.3668C219.717 25.0083 219.88 24.6499 220.097 24.2915C220.216 24.0851 220.385 23.9059 220.602 23.7538C220.819 23.5909 221.064 23.4606 221.335 23.3628C221.607 23.2542 221.895 23.1782 222.199 23.1347C222.514 23.0804 222.818 23.0587 223.111 23.0695ZM230.736 24.2589C230.79 24.2589 230.839 24.2643 230.883 24.2752C230.937 24.286 230.991 24.2915 231.045 24.2915C231.1 24.3023 231.159 24.3132 231.225 24.324C231.29 24.324 231.355 24.3295 231.42 24.3403C231.54 24.3621 231.659 24.4055 231.779 24.4707C231.898 24.525 231.985 24.6119 232.039 24.7314C232.115 24.8508 232.153 24.992 232.153 25.155C232.153 25.2418 232.148 25.3233 232.137 25.3993C232.137 25.4645 232.126 25.5405 232.104 25.6274C232.083 25.7143 232.056 25.8066 232.023 25.9044C232.001 26.0022 231.952 26.0782 231.876 26.1325C231.724 26.2411 231.578 26.3117 231.436 26.3443C231.263 26.366 231.051 26.3714 230.801 26.3606C230.551 26.3497 230.339 26.3497 230.166 26.3606C230.155 26.3606 230.144 26.366 230.133 26.3769H230.117L230.1 26.3932V26.442C230.09 26.7136 230.084 27.0286 230.084 27.387C230.095 27.7454 230.1 28.0658 230.1 28.3482C230.122 28.913 230.122 29.467 230.1 30.0101V30.2382C230.1 30.3794 230.095 30.5368 230.084 30.7106C230.084 30.8736 230.073 31.0365 230.052 31.1994C230.03 31.3623 229.992 31.5198 229.938 31.6719C229.883 31.8131 229.807 31.9326 229.709 32.0303C229.579 32.1824 229.405 32.2584 229.188 32.2584C229.188 32.2584 229.177 32.253 229.156 32.2421C228.895 32.2312 228.683 32.1552 228.52 32.014C228.368 31.8728 228.249 31.699 228.162 31.4927C228.086 31.2863 228.037 31.0745 228.015 30.8573C227.993 30.6292 227.982 30.4282 227.982 30.2544V20.5768C227.982 20.566 227.982 20.5171 227.982 20.4302C227.982 20.3324 227.993 20.2238 228.015 20.1043C228.037 19.974 228.069 19.8437 228.113 19.7133C228.167 19.5721 228.238 19.4581 228.325 19.3712C228.401 19.2952 228.509 19.2408 228.65 19.2083C228.803 19.1648 228.938 19.1431 229.058 19.1431C229.297 19.1431 229.498 19.2246 229.661 19.3875C229.813 19.5395 229.9 19.7025 229.921 19.8762C229.954 20.0392 229.981 20.213 230.003 20.3976C230.014 20.441 230.019 20.5062 230.019 20.5931C230.041 20.7778 230.052 20.9678 230.052 21.1633C230.062 21.3588 230.073 21.5544 230.084 21.7499C230.084 21.8693 230.084 21.9888 230.084 22.1083C230.095 22.2169 230.1 22.331 230.1 22.4504C230.09 22.5156 230.084 22.5808 230.084 22.6459C230.095 22.7002 230.1 22.7546 230.1 22.8089V23.8679C230.1 23.9222 230.1 23.9819 230.1 24.0471C230.1 24.1122 230.111 24.172 230.133 24.2263C230.133 24.2372 230.187 24.2426 230.296 24.2426C230.405 24.2426 230.464 24.2426 230.475 24.2426C230.573 24.2643 230.649 24.2697 230.703 24.2589H230.736ZM225.392 20.4628C225.609 20.4628 225.826 20.4954 226.044 20.5605C226.261 20.6257 226.429 20.7669 226.549 20.9841C226.625 21.1253 226.652 21.3045 226.63 21.5218C226.609 21.7281 226.543 21.9019 226.435 22.0431C226.326 22.1735 226.158 22.2658 225.93 22.3201C225.702 22.3744 225.463 22.4124 225.213 22.4341C224.963 22.445 224.729 22.445 224.512 22.4341C224.306 22.4233 224.165 22.4178 224.089 22.4178C224.002 22.4287 223.915 22.4341 223.828 22.4341C223.752 22.4341 223.665 22.4341 223.567 22.4341H223.046C222.959 22.4233 222.872 22.4178 222.785 22.4178C222.709 22.4178 222.628 22.4178 222.541 22.4178L220.618 22.3853C220.064 22.3853 219.668 22.3147 219.429 22.1735C219.19 22.0323 219.049 21.8096 219.005 21.5055C218.962 21.1905 219.043 20.9352 219.25 20.7397C219.402 20.6094 219.527 20.5279 219.625 20.4954C219.733 20.4628 219.869 20.4465 220.032 20.4465C220.075 20.4465 220.119 20.4519 220.162 20.4628C220.206 20.4628 220.249 20.4628 220.293 20.4628H220.7C220.852 20.4628 221.031 20.4628 221.237 20.4628C221.444 20.4519 221.623 20.441 221.775 20.4302C221.775 20.3867 221.775 20.327 221.775 20.251C221.786 20.1641 221.791 20.0772 221.791 19.9903C221.802 19.9034 221.808 19.8219 221.808 19.7459C221.819 19.659 221.824 19.5993 221.824 19.5667C221.846 19.382 221.905 19.2137 222.003 19.0616C222.231 18.7466 222.514 18.6 222.85 18.6217C223.002 18.6435 223.155 18.6706 223.307 18.7032C223.459 18.7249 223.584 18.801 223.681 18.9313C223.801 19.1051 223.855 19.344 223.844 19.6482C223.844 19.9414 223.855 20.2075 223.877 20.4465H224.349C224.436 20.4465 224.561 20.4519 224.724 20.4628C224.887 20.4628 225.012 20.4628 225.099 20.4628H225.392ZM223.046 29.9612C223.285 29.9286 223.491 29.8363 223.665 29.6842C223.839 29.5213 223.98 29.3312 224.089 29.114C224.197 28.8968 224.273 28.6632 224.317 28.4134C224.36 28.1636 224.382 27.9301 224.382 27.7128C224.382 27.5282 224.371 27.3218 224.349 27.0937C224.338 26.8548 224.311 26.6267 224.268 26.4095C224.224 26.1814 224.154 25.975 224.056 25.7904C223.958 25.5948 223.828 25.4374 223.665 25.3179C223.513 25.2201 223.334 25.1604 223.127 25.1387C222.921 25.1061 222.709 25.1115 222.492 25.155C222.286 25.1984 222.096 25.2744 221.922 25.383C221.748 25.4808 221.623 25.6166 221.547 25.7904C221.341 26.2357 221.232 26.681 221.221 27.1263C221.221 27.5716 221.27 28.0278 221.368 28.4949C221.422 28.7338 221.498 28.9836 221.596 29.2443C221.694 29.4941 221.846 29.6896 222.052 29.8308C222.096 29.8634 222.161 29.8906 222.248 29.9123C222.345 29.9232 222.443 29.934 222.541 29.9449C222.649 29.9558 222.747 29.9666 222.834 29.9775C222.932 29.9775 223.002 29.972 223.046 29.9612ZM244.569 30.9713C244.548 31.1016 244.531 31.232 244.52 31.3623C244.51 31.4818 244.482 31.6067 244.439 31.737C244.417 31.7805 244.401 31.8185 244.39 31.8511C244.379 31.8837 244.363 31.9217 244.341 31.9651C244.265 32.1172 244.167 32.2367 244.048 32.3236C243.798 32.4756 243.521 32.5136 243.217 32.4376C243.043 32.405 242.902 32.3399 242.793 32.2421C242.696 32.1552 242.62 32.0412 242.565 31.9C242.522 31.7696 242.484 31.6393 242.451 31.509C242.43 31.3786 242.419 31.2646 242.419 31.1668C242.419 31.0691 242.419 31.0148 242.419 31.0039V20.9352C242.419 20.8049 242.419 20.6637 242.419 20.5116C242.419 20.3596 242.43 20.2075 242.451 20.0555C242.473 19.9034 242.506 19.7622 242.549 19.6319C242.593 19.5015 242.652 19.3983 242.728 19.3223C242.848 19.2028 242.973 19.1322 243.103 19.1105C243.233 19.0779 243.375 19.0616 243.527 19.0616C243.711 19.0616 243.88 19.1159 244.032 19.2246C244.195 19.3223 244.309 19.4635 244.374 19.6482C244.472 19.8762 244.526 20.1152 244.537 20.365C244.548 20.6148 244.558 20.8646 244.569 21.1145V21.1959C244.591 22.0323 244.596 22.8903 244.586 23.7701C244.575 24.6499 244.569 25.4808 244.569 26.2628V30.3848C244.569 30.4825 244.569 30.5803 244.569 30.678C244.58 30.7758 244.58 30.8736 244.569 30.9713ZM236.879 29.3747C236.869 29.2443 236.863 29.114 236.863 28.9836C236.863 28.8533 236.863 28.723 236.863 28.5926V23.4117C236.863 23.2379 236.863 23.0641 236.863 22.8903C236.863 22.7165 236.852 22.5373 236.83 22.3527C236.82 22.2984 236.803 22.2223 236.782 22.1246C236.771 22.0268 236.738 21.9671 236.684 21.9454C236.63 21.9128 236.564 21.9019 236.488 21.9128C236.423 21.9128 236.358 21.9074 236.293 21.8965C236.217 21.8856 236.141 21.8856 236.065 21.8965C236 21.9074 235.929 21.9074 235.853 21.8965H235.087C234.903 21.9074 234.718 21.9074 234.533 21.8965C234.349 21.8856 234.164 21.8856 233.979 21.8965C233.892 21.9074 233.811 21.9128 233.735 21.9128C233.67 21.9019 233.594 21.8965 233.507 21.8965C233.387 21.8965 233.262 21.8911 233.132 21.8802C233.002 21.8693 232.882 21.8259 232.774 21.7499C232.622 21.6412 232.518 21.5055 232.464 21.3426C232.41 21.1796 232.383 21.0113 232.383 20.8375C232.372 20.6311 232.415 20.4248 232.513 20.2184C232.567 20.088 232.638 19.9957 232.725 19.9414C232.779 19.8871 232.855 19.8437 232.953 19.8111C233.062 19.7676 233.154 19.735 233.23 19.7133C233.458 19.659 233.697 19.6319 233.947 19.6319C234.197 19.621 234.441 19.6156 234.68 19.6156H237.515C237.656 19.6373 237.803 19.659 237.955 19.6807C238.118 19.6916 238.264 19.7242 238.395 19.7785C238.481 19.8111 238.563 19.8545 238.639 19.9088C238.726 19.9631 238.796 20.0283 238.851 20.1043C238.948 20.2564 239.003 20.4085 239.014 20.5605C239.035 20.7126 239.057 20.8809 239.079 21.0656C239.101 21.3697 239.111 21.6738 239.111 21.978C239.111 22.2712 239.111 22.5699 239.111 22.874V28.2179C239.111 28.2288 239.111 28.3157 239.111 28.4786C239.122 28.6306 239.128 28.8153 239.128 29.0325C239.128 29.2389 239.128 29.4616 239.128 29.7005C239.128 29.9286 239.122 30.1295 239.111 30.3033C239.101 30.4119 239.084 30.526 239.063 30.6455C239.041 30.7649 239.003 30.879 238.948 30.9876C238.905 31.0962 238.84 31.194 238.753 31.2809C238.666 31.3678 238.552 31.4384 238.411 31.4927C238.226 31.5687 238.042 31.6067 237.857 31.6067C237.716 31.6067 237.575 31.5796 237.433 31.5252C237.292 31.4601 237.194 31.3678 237.14 31.2483C236.966 30.9007 236.879 30.5151 236.879 30.0915V29.3747Z" fill="#282828"/>
</svg>
