<svg width="234" height="238" viewBox="0 0 234 238" fill="none" xmlns="http://www.w3.org/2000/svg">
<g filter="url(#filter0_df_333_1119)">
<path d="M132.596 173.908C131.491 173.908 130.596 173.013 130.596 171.908V144.053C130.596 142.948 131.491 142.053 132.596 142.053H150.287C151.391 142.053 152.287 141.157 152.287 140.053V136.744C152.287 127.947 158.761 120.816 166.747 120.816C174.734 120.816 181.208 127.947 181.208 136.744V140.053C181.208 141.157 182.103 142.053 183.208 142.053H200.899C202.003 142.053 202.899 142.948 202.899 144.053V171.908C202.899 173.013 203.794 173.908 204.899 173.908H212.539C220.526 173.908 227 181.039 227 189.836C227 198.632 220.526 205.763 212.539 205.763H204.899C203.794 205.763 202.899 206.659 202.899 207.763V225C202.899 226.105 202.003 227 200.899 227H132.596C131.491 227 130.596 226.105 130.596 225V207.763C130.596 206.659 131.491 205.763 132.596 205.763H140.236C148.222 205.763 154.697 198.632 154.697 189.836C154.697 181.039 148.222 173.908 140.236 173.908H132.596Z" fill="url(#paint0_linear_333_1119)"/>
<path d="M132.596 173.908C131.491 173.908 130.596 173.013 130.596 171.908V144.053C130.596 142.948 131.491 142.053 132.596 142.053H150.287C151.391 142.053 152.287 141.157 152.287 140.053V136.744C152.287 127.947 158.761 120.816 166.747 120.816C174.734 120.816 181.208 127.947 181.208 136.744V140.053C181.208 141.157 182.103 142.053 183.208 142.053H200.899C202.003 142.053 202.899 142.948 202.899 144.053V171.908C202.899 173.013 203.794 173.908 204.899 173.908H212.539C220.526 173.908 227 181.039 227 189.836C227 198.632 220.526 205.763 212.539 205.763H204.899C203.794 205.763 202.899 206.659 202.899 207.763V225C202.899 226.105 202.003 227 200.899 227H132.596C131.491 227 130.596 226.105 130.596 225V207.763C130.596 206.659 131.491 205.763 132.596 205.763H140.236C148.222 205.763 154.697 198.632 154.697 189.836C154.697 181.039 148.222 173.908 140.236 173.908H132.596Z" stroke="#272A32" stroke-width="6" stroke-linejoin="round"/>
</g>
<g filter="url(#filter1_d_333_1119)">
<path d="M132.596 173.908C131.491 173.908 130.596 173.013 130.596 171.908V144.053C130.596 142.948 131.491 142.053 132.596 142.053H150.287C151.391 142.053 152.287 141.157 152.287 140.053V136.744C152.287 127.947 158.761 120.816 166.747 120.816C174.734 120.816 181.208 127.947 181.208 136.744V140.053C181.208 141.157 182.103 142.053 183.208 142.053H200.899C202.003 142.053 202.899 142.948 202.899 144.053V171.908C202.899 173.013 203.794 173.908 204.899 173.908H212.539C220.526 173.908 227 181.039 227 189.836C227 198.632 220.526 205.763 212.539 205.763H204.899C203.794 205.763 202.899 206.659 202.899 207.763V225C202.899 226.105 202.003 227 200.899 227H132.596C131.491 227 130.596 226.105 130.596 225V207.763C130.596 206.659 131.491 205.763 132.596 205.763H140.236C148.222 205.763 154.697 198.632 154.697 189.836C154.697 181.039 148.222 173.908 140.236 173.908H132.596Z" fill="url(#paint1_linear_333_1119)"/>
<path d="M132.596 173.908C131.491 173.908 130.596 173.013 130.596 171.908V144.053C130.596 142.948 131.491 142.053 132.596 142.053H150.287C151.391 142.053 152.287 141.157 152.287 140.053V136.744C152.287 127.947 158.761 120.816 166.747 120.816C174.734 120.816 181.208 127.947 181.208 136.744V140.053C181.208 141.157 182.103 142.053 183.208 142.053H200.899C202.003 142.053 202.899 142.948 202.899 144.053V171.908C202.899 173.013 203.794 173.908 204.899 173.908H212.539C220.526 173.908 227 181.039 227 189.836C227 198.632 220.526 205.763 212.539 205.763H204.899C203.794 205.763 202.899 206.659 202.899 207.763V225C202.899 226.105 202.003 227 200.899 227H132.596C131.491 227 130.596 226.105 130.596 225V207.763C130.596 206.659 131.491 205.763 132.596 205.763H140.236C148.222 205.763 154.697 198.632 154.697 189.836C154.697 181.039 148.222 173.908 140.236 173.908H132.596Z" stroke="black" stroke-width="6" stroke-linejoin="round"/>
</g>
<g filter="url(#filter2_df_333_1119)">
<path d="M29.2615 173.908C28.157 173.908 27.2615 173.013 27.2615 171.908L27.2615 144.053C27.2615 142.948 28.157 142.053 29.2615 142.053H46.9525C48.0571 142.053 48.9525 141.157 48.9525 140.053V136.744C48.9525 127.947 55.4268 120.816 63.4132 120.816C71.3996 120.816 77.8739 127.947 77.8739 136.744V140.053C77.8739 141.157 78.7693 142.053 79.8739 142.053H97.5649C98.6694 142.053 99.5649 142.948 99.5649 144.053V171.908C99.5649 173.013 100.46 173.908 101.565 173.908H109.205C117.192 173.908 123.666 181.039 123.666 189.836C123.666 198.632 117.192 205.763 109.205 205.763H101.565C100.46 205.763 99.5649 206.659 99.5649 207.763V225C99.5649 226.105 98.6694 227 97.5649 227H29.2615C28.157 227 27.2615 226.105 27.2615 225V207.763C27.2615 206.659 28.157 205.763 29.2615 205.763H36.902C44.8884 205.763 51.3626 198.632 51.3626 189.836C51.3626 181.039 44.8884 173.908 36.902 173.908H29.2615Z" fill="url(#paint2_linear_333_1119)"/>
<path d="M29.2615 173.908C28.157 173.908 27.2615 173.013 27.2615 171.908L27.2615 144.053C27.2615 142.948 28.157 142.053 29.2615 142.053H46.9525C48.0571 142.053 48.9525 141.157 48.9525 140.053V136.744C48.9525 127.947 55.4268 120.816 63.4132 120.816C71.3996 120.816 77.8739 127.947 77.8739 136.744V140.053C77.8739 141.157 78.7693 142.053 79.8739 142.053H97.5649C98.6694 142.053 99.5649 142.948 99.5649 144.053V171.908C99.5649 173.013 100.46 173.908 101.565 173.908H109.205C117.192 173.908 123.666 181.039 123.666 189.836C123.666 198.632 117.192 205.763 109.205 205.763H101.565C100.46 205.763 99.5649 206.659 99.5649 207.763V225C99.5649 226.105 98.6694 227 97.5649 227H29.2615C28.157 227 27.2615 226.105 27.2615 225V207.763C27.2615 206.659 28.157 205.763 29.2615 205.763H36.902C44.8884 205.763 51.3626 198.632 51.3626 189.836C51.3626 181.039 44.8884 173.908 36.902 173.908H29.2615Z" stroke="#400E0E" stroke-width="6" stroke-linejoin="round"/>
</g>
<g filter="url(#filter3_d_333_1119)">
<path d="M29.2615 173.908C28.157 173.908 27.2615 173.013 27.2615 171.908L27.2615 144.053C27.2615 142.948 28.157 142.053 29.2615 142.053H46.9525C48.0571 142.053 48.9525 141.157 48.9525 140.053V136.744C48.9525 127.947 55.4268 120.816 63.4132 120.816C71.3996 120.816 77.8739 127.947 77.8739 136.744V140.053C77.8739 141.157 78.7693 142.053 79.8739 142.053H97.5649C98.6694 142.053 99.5649 142.948 99.5649 144.053V171.908C99.5649 173.013 100.46 173.908 101.565 173.908H109.205C117.192 173.908 123.666 181.039 123.666 189.836C123.666 198.632 117.192 205.763 109.205 205.763H101.565C100.46 205.763 99.5649 206.659 99.5649 207.763V225C99.5649 226.105 98.6694 227 97.5649 227H29.2615C28.157 227 27.2615 226.105 27.2615 225V207.763C27.2615 206.659 28.157 205.763 29.2615 205.763H36.902C44.8884 205.763 51.3626 198.632 51.3626 189.836C51.3626 181.039 44.8884 173.908 36.902 173.908H29.2615Z" fill="url(#paint3_linear_333_1119)"/>
<path d="M29.2615 173.908C28.157 173.908 27.2615 173.013 27.2615 171.908L27.2615 144.053C27.2615 142.948 28.157 142.053 29.2615 142.053H46.9525C48.0571 142.053 48.9525 141.157 48.9525 140.053V136.744C48.9525 127.947 55.4268 120.816 63.4132 120.816C71.3996 120.816 77.8739 127.947 77.8739 136.744V140.053C77.8739 141.157 78.7693 142.053 79.8739 142.053H97.5649C98.6694 142.053 99.5649 142.948 99.5649 144.053V171.908C99.5649 173.013 100.46 173.908 101.565 173.908H109.205C117.192 173.908 123.666 181.039 123.666 189.836C123.666 198.632 117.192 205.763 109.205 205.763H101.565C100.46 205.763 99.5649 206.659 99.5649 207.763V225C99.5649 226.105 98.6694 227 97.5649 227H29.2615C28.157 227 27.2615 226.105 27.2615 225V207.763C27.2615 206.659 28.157 205.763 29.2615 205.763H36.902C44.8884 205.763 51.3626 198.632 51.3626 189.836C51.3626 181.039 44.8884 173.908 36.902 173.908H29.2615Z" stroke="black" stroke-width="6" stroke-linejoin="round"/>
</g>
<g filter="url(#filter4_df_333_1119)">
<path d="M55.2022 111.184C55.2022 112.289 54.3068 113.184 53.2022 113.184L28.2809 113.184C27.1763 113.184 26.2809 112.289 26.2809 111.184L26.2809 91.2927C26.2809 90.1881 25.3855 89.2927 24.2809 89.2927L21.4607 89.2927C13.4743 89.2927 7 82.1616 7 73.3651C7 64.5685 13.4743 57.4375 21.4607 57.4375L24.2809 57.4375C25.3855 57.4375 26.2809 56.542 26.2809 55.4375L26.2809 35.546C26.2809 34.4415 27.1763 33.546 28.2809 33.546L53.2022 33.546C54.3068 33.546 55.2022 32.6506 55.2022 31.546L55.2022 22.9276C55.2022 14.1311 61.6765 7.00004 69.6629 7.00004C77.6493 7.00004 84.1236 14.1311 84.1236 22.9276L84.1236 31.546C84.1236 32.6506 85.019 33.546 86.1236 33.546L101.404 33.546C102.509 33.546 103.404 34.4415 103.404 35.546L103.404 111.184C103.404 112.289 102.509 113.184 101.404 113.184L86.1236 113.184C85.019 113.184 84.1236 112.289 84.1236 111.184L84.1236 102.566C84.1236 93.7691 77.6493 86.6381 69.6629 86.6381C61.6765 86.6381 55.2022 93.7691 55.2022 102.566L55.2022 111.184Z" fill="url(#paint4_linear_333_1119)"/>
<path d="M55.2022 111.184C55.2022 112.289 54.3068 113.184 53.2022 113.184L28.2809 113.184C27.1763 113.184 26.2809 112.289 26.2809 111.184L26.2809 91.2927C26.2809 90.1881 25.3855 89.2927 24.2809 89.2927L21.4607 89.2927C13.4743 89.2927 7 82.1616 7 73.3651C7 64.5685 13.4743 57.4375 21.4607 57.4375L24.2809 57.4375C25.3855 57.4375 26.2809 56.542 26.2809 55.4375L26.2809 35.546C26.2809 34.4415 27.1763 33.546 28.2809 33.546L53.2022 33.546C54.3068 33.546 55.2022 32.6506 55.2022 31.546L55.2022 22.9276C55.2022 14.1311 61.6765 7.00004 69.6629 7.00004C77.6493 7.00004 84.1236 14.1311 84.1236 22.9276L84.1236 31.546C84.1236 32.6506 85.019 33.546 86.1236 33.546L101.404 33.546C102.509 33.546 103.404 34.4415 103.404 35.546L103.404 111.184C103.404 112.289 102.509 113.184 101.404 113.184L86.1236 113.184C85.019 113.184 84.1236 112.289 84.1236 111.184L84.1236 102.566C84.1236 93.7691 77.6493 86.6381 69.6629 86.6381C61.6765 86.6381 55.2022 93.7691 55.2022 102.566L55.2022 111.184Z" stroke="#464611" stroke-width="6" stroke-linejoin="round"/>
</g>
<g filter="url(#filter5_d_333_1119)">
<path d="M55.2022 111.184C55.2022 112.289 54.3068 113.184 53.2022 113.184L28.2809 113.184C27.1763 113.184 26.2809 112.289 26.2809 111.184L26.2809 91.2927C26.2809 90.1881 25.3855 89.2927 24.2809 89.2927L21.4607 89.2927C13.4743 89.2927 7 82.1616 7 73.3651C7 64.5685 13.4743 57.4375 21.4607 57.4375L24.2809 57.4375C25.3855 57.4375 26.2809 56.542 26.2809 55.4375L26.2809 35.546C26.2809 34.4415 27.1763 33.546 28.2809 33.546L53.2022 33.546C54.3068 33.546 55.2022 32.6506 55.2022 31.546L55.2022 22.9276C55.2022 14.1311 61.6765 7.00004 69.6629 7.00004C77.6493 7.00004 84.1236 14.1311 84.1236 22.9276L84.1236 31.546C84.1236 32.6506 85.019 33.546 86.1236 33.546L101.404 33.546C102.509 33.546 103.404 34.4415 103.404 35.546L103.404 111.184C103.404 112.289 102.509 113.184 101.404 113.184L86.1236 113.184C85.019 113.184 84.1236 112.289 84.1236 111.184L84.1236 102.566C84.1236 93.7691 77.6493 86.6381 69.6629 86.6381C61.6765 86.6381 55.2022 93.7691 55.2022 102.566L55.2022 111.184Z" fill="url(#paint5_linear_333_1119)"/>
<path d="M55.2022 111.184C55.2022 112.289 54.3068 113.184 53.2022 113.184L28.2809 113.184C27.1763 113.184 26.2809 112.289 26.2809 111.184L26.2809 91.2927C26.2809 90.1881 25.3855 89.2927 24.2809 89.2927L21.4607 89.2927C13.4743 89.2927 7 82.1616 7 73.3651C7 64.5685 13.4743 57.4375 21.4607 57.4375L24.2809 57.4375C25.3855 57.4375 26.2809 56.542 26.2809 55.4375L26.2809 35.546C26.2809 34.4415 27.1763 33.546 28.2809 33.546L53.2022 33.546C54.3068 33.546 55.2022 32.6506 55.2022 31.546L55.2022 22.9276C55.2022 14.1311 61.6765 7.00004 69.6629 7.00004C77.6493 7.00004 84.1236 14.1311 84.1236 22.9276L84.1236 31.546C84.1236 32.6506 85.019 33.546 86.1236 33.546L101.404 33.546C102.509 33.546 103.404 34.4415 103.404 35.546L103.404 111.184C103.404 112.289 102.509 113.184 101.404 113.184L86.1236 113.184C85.019 113.184 84.1236 112.289 84.1236 111.184L84.1236 102.566C84.1236 93.7691 77.6493 86.6381 69.6629 86.6381C61.6765 86.6381 55.2022 93.7691 55.2022 102.566L55.2022 111.184Z" stroke="black" stroke-width="6" stroke-linejoin="round"/>
</g>
<g filter="url(#filter6_df_333_1119)">
<path d="M178.798 111.184C178.798 112.289 179.693 113.184 180.798 113.184H205.719C206.824 113.184 207.719 112.289 207.719 111.184V91.2927C207.719 90.1881 208.615 89.2927 209.719 89.2927H212.539C220.526 89.2927 227 82.1616 227 73.365C227 64.5685 220.526 57.4374 212.539 57.4374H209.719C208.615 57.4374 207.719 56.542 207.719 55.4374V35.546C207.719 34.4414 206.824 33.546 205.719 33.546H180.798C179.693 33.546 178.798 32.6506 178.798 31.546V22.9276C178.798 14.131 172.323 6.99997 164.337 6.99997C156.351 6.99997 149.876 14.131 149.876 22.9276V31.546C149.876 32.6506 148.981 33.546 147.876 33.546H132.596C131.491 33.546 130.596 34.4414 130.596 35.546V111.184C130.596 112.289 131.491 113.184 132.596 113.184H147.876C148.981 113.184 149.876 112.289 149.876 111.184V102.566C149.876 93.7691 156.351 86.6381 164.337 86.6381C172.323 86.6381 178.798 93.7691 178.798 102.566V111.184Z" fill="url(#paint6_linear_333_1119)"/>
<path d="M178.798 111.184C178.798 112.289 179.693 113.184 180.798 113.184H205.719C206.824 113.184 207.719 112.289 207.719 111.184V91.2927C207.719 90.1881 208.615 89.2927 209.719 89.2927H212.539C220.526 89.2927 227 82.1616 227 73.365C227 64.5685 220.526 57.4374 212.539 57.4374H209.719C208.615 57.4374 207.719 56.542 207.719 55.4374V35.546C207.719 34.4414 206.824 33.546 205.719 33.546H180.798C179.693 33.546 178.798 32.6506 178.798 31.546V22.9276C178.798 14.131 172.323 6.99997 164.337 6.99997C156.351 6.99997 149.876 14.131 149.876 22.9276V31.546C149.876 32.6506 148.981 33.546 147.876 33.546H132.596C131.491 33.546 130.596 34.4414 130.596 35.546V111.184C130.596 112.289 131.491 113.184 132.596 113.184H147.876C148.981 113.184 149.876 112.289 149.876 111.184V102.566C149.876 93.7691 156.351 86.6381 164.337 86.6381C172.323 86.6381 178.798 93.7691 178.798 102.566V111.184Z" stroke="#0E4119" stroke-width="6" stroke-linejoin="round"/>
</g>
<g filter="url(#filter7_d_333_1119)">
<path d="M178.798 111.184C178.798 112.289 179.693 113.184 180.798 113.184H205.719C206.824 113.184 207.719 112.289 207.719 111.184V91.2927C207.719 90.1881 208.614 89.2927 209.719 89.2927H212.539C220.526 89.2927 227 82.1616 227 73.365C227 64.5685 220.526 57.4374 212.539 57.4374H209.719C208.614 57.4374 207.719 56.542 207.719 55.4374V35.546C207.719 34.4414 206.824 33.546 205.719 33.546H180.798C179.693 33.546 178.798 32.6506 178.798 31.546V22.9276C178.798 14.131 172.323 6.99997 164.337 6.99997C156.351 6.99997 149.876 14.131 149.876 22.9276V31.546C149.876 32.6506 148.981 33.546 147.876 33.546H132.595C131.491 33.546 130.595 34.4414 130.595 35.546V111.184C130.595 112.289 131.491 113.184 132.595 113.184H147.876C148.981 113.184 149.876 112.289 149.876 111.184V102.566C149.876 93.7691 156.351 86.6381 164.337 86.6381C172.323 86.6381 178.798 93.7691 178.798 102.566V111.184Z" fill="url(#paint7_linear_333_1119)"/>
<path d="M178.798 111.184C178.798 112.289 179.693 113.184 180.798 113.184H205.719C206.824 113.184 207.719 112.289 207.719 111.184V91.2927C207.719 90.1881 208.614 89.2927 209.719 89.2927H212.539C220.526 89.2927 227 82.1616 227 73.365C227 64.5685 220.526 57.4374 212.539 57.4374H209.719C208.614 57.4374 207.719 56.542 207.719 55.4374V35.546C207.719 34.4414 206.824 33.546 205.719 33.546H180.798C179.693 33.546 178.798 32.6506 178.798 31.546V22.9276C178.798 14.131 172.323 6.99997 164.337 6.99997C156.351 6.99997 149.876 14.131 149.876 22.9276V31.546C149.876 32.6506 148.981 33.546 147.876 33.546H132.595C131.491 33.546 130.595 34.4414 130.595 35.546V111.184C130.595 112.289 131.491 113.184 132.595 113.184H147.876C148.981 113.184 149.876 112.289 149.876 111.184V102.566C149.876 93.7691 156.351 86.6381 164.337 86.6381C172.323 86.6381 178.798 93.7691 178.798 102.566V111.184Z" stroke="black" stroke-width="6" stroke-linejoin="round"/>
</g>
<defs>
<filter id="filter0_df_333_1119" x="123.596" y="113.816" width="110.404" height="124.184" filterUnits="userSpaceOnUse" color-interpolation-filters="sRGB">
<feFlood flood-opacity="0" result="BackgroundImageFix"/>
<feColorMatrix in="SourceAlpha" type="matrix" values="0 0 0 0 0 0 0 0 0 0 0 0 0 0 0 0 0 0 127 0" result="hardAlpha"/>
<feOffset dy="4"/>
<feGaussianBlur stdDeviation="2"/>
<feComposite in2="hardAlpha" operator="out"/>
<feColorMatrix type="matrix" values="0 0 0 0 0 0 0 0 0 0 0 0 0 0 0 0 0 0 0.25 0"/>
<feBlend mode="normal" in2="BackgroundImageFix" result="effect1_dropShadow_333_1119"/>
<feBlend mode="normal" in="SourceGraphic" in2="effect1_dropShadow_333_1119" result="shape"/>
<feGaussianBlur stdDeviation="2" result="effect2_foregroundBlur_333_1119"/>
</filter>
<filter id="filter1_d_333_1119" x="123.596" y="117.816" width="110.404" height="120.184" filterUnits="userSpaceOnUse" color-interpolation-filters="sRGB">
<feFlood flood-opacity="0" result="BackgroundImageFix"/>
<feColorMatrix in="SourceAlpha" type="matrix" values="0 0 0 0 0 0 0 0 0 0 0 0 0 0 0 0 0 0 127 0" result="hardAlpha"/>
<feOffset dy="4"/>
<feGaussianBlur stdDeviation="2"/>
<feComposite in2="hardAlpha" operator="out"/>
<feColorMatrix type="matrix" values="0 0 0 0 0 0 0 0 0 0 0 0 0 0 0 0 0 0 0.25 0"/>
<feBlend mode="normal" in2="BackgroundImageFix" result="effect1_dropShadow_333_1119"/>
<feBlend mode="normal" in="SourceGraphic" in2="effect1_dropShadow_333_1119" result="shape"/>
</filter>
<filter id="filter2_df_333_1119" x="20.2615" y="113.816" width="110.404" height="124.184" filterUnits="userSpaceOnUse" color-interpolation-filters="sRGB">
<feFlood flood-opacity="0" result="BackgroundImageFix"/>
<feColorMatrix in="SourceAlpha" type="matrix" values="0 0 0 0 0 0 0 0 0 0 0 0 0 0 0 0 0 0 127 0" result="hardAlpha"/>
<feOffset dy="4"/>
<feGaussianBlur stdDeviation="2"/>
<feComposite in2="hardAlpha" operator="out"/>
<feColorMatrix type="matrix" values="0 0 0 0 0 0 0 0 0 0 0 0 0 0 0 0 0 0 0.25 0"/>
<feBlend mode="normal" in2="BackgroundImageFix" result="effect1_dropShadow_333_1119"/>
<feBlend mode="normal" in="SourceGraphic" in2="effect1_dropShadow_333_1119" result="shape"/>
<feGaussianBlur stdDeviation="2" result="effect2_foregroundBlur_333_1119"/>
</filter>
<filter id="filter3_d_333_1119" x="20.2615" y="117.816" width="110.404" height="120.184" filterUnits="userSpaceOnUse" color-interpolation-filters="sRGB">
<feFlood flood-opacity="0" result="BackgroundImageFix"/>
<feColorMatrix in="SourceAlpha" type="matrix" values="0 0 0 0 0 0 0 0 0 0 0 0 0 0 0 0 0 0 127 0" result="hardAlpha"/>
<feOffset dy="4"/>
<feGaussianBlur stdDeviation="2"/>
<feComposite in2="hardAlpha" operator="out"/>
<feColorMatrix type="matrix" values="0 0 0 0 0 0 0 0 0 0 0 0 0 0 0 0 0 0 0.25 0"/>
<feBlend mode="normal" in2="BackgroundImageFix" result="effect1_dropShadow_333_1119"/>
<feBlend mode="normal" in="SourceGraphic" in2="effect1_dropShadow_333_1119" result="shape"/>
</filter>
<filter id="filter4_df_333_1119" x="0" y="0" width="110.404" height="124.184" filterUnits="userSpaceOnUse" color-interpolation-filters="sRGB">
<feFlood flood-opacity="0" result="BackgroundImageFix"/>
<feColorMatrix in="SourceAlpha" type="matrix" values="0 0 0 0 0 0 0 0 0 0 0 0 0 0 0 0 0 0 127 0" result="hardAlpha"/>
<feOffset dy="4"/>
<feGaussianBlur stdDeviation="2"/>
<feComposite in2="hardAlpha" operator="out"/>
<feColorMatrix type="matrix" values="0 0 0 0 0 0 0 0 0 0 0 0 0 0 0 0 0 0 0.25 0"/>
<feBlend mode="normal" in2="BackgroundImageFix" result="effect1_dropShadow_333_1119"/>
<feBlend mode="normal" in="SourceGraphic" in2="effect1_dropShadow_333_1119" result="shape"/>
<feGaussianBlur stdDeviation="2" result="effect2_foregroundBlur_333_1119"/>
</filter>
<filter id="filter5_d_333_1119" x="0" y="4" width="110.404" height="120.184" filterUnits="userSpaceOnUse" color-interpolation-filters="sRGB">
<feFlood flood-opacity="0" result="BackgroundImageFix"/>
<feColorMatrix in="SourceAlpha" type="matrix" values="0 0 0 0 0 0 0 0 0 0 0 0 0 0 0 0 0 0 127 0" result="hardAlpha"/>
<feOffset dy="4"/>
<feGaussianBlur stdDeviation="2"/>
<feComposite in2="hardAlpha" operator="out"/>
<feColorMatrix type="matrix" values="0 0 0 0 0 0 0 0 0 0 0 0 0 0 0 0 0 0 0.25 0"/>
<feBlend mode="normal" in2="BackgroundImageFix" result="effect1_dropShadow_333_1119"/>
<feBlend mode="normal" in="SourceGraphic" in2="effect1_dropShadow_333_1119" result="shape"/>
</filter>
<filter id="filter6_df_333_1119" x="123.596" y="0" width="110.404" height="124.184" filterUnits="userSpaceOnUse" color-interpolation-filters="sRGB">
<feFlood flood-opacity="0" result="BackgroundImageFix"/>
<feColorMatrix in="SourceAlpha" type="matrix" values="0 0 0 0 0 0 0 0 0 0 0 0 0 0 0 0 0 0 127 0" result="hardAlpha"/>
<feOffset dy="4"/>
<feGaussianBlur stdDeviation="2"/>
<feComposite in2="hardAlpha" operator="out"/>
<feColorMatrix type="matrix" values="0 0 0 0 0 0 0 0 0 0 0 0 0 0 0 0 0 0 0.25 0"/>
<feBlend mode="normal" in2="BackgroundImageFix" result="effect1_dropShadow_333_1119"/>
<feBlend mode="normal" in="SourceGraphic" in2="effect1_dropShadow_333_1119" result="shape"/>
<feGaussianBlur stdDeviation="2" result="effect2_foregroundBlur_333_1119"/>
</filter>
<filter id="filter7_d_333_1119" x="123.595" y="4" width="110.404" height="120.184" filterUnits="userSpaceOnUse" color-interpolation-filters="sRGB">
<feFlood flood-opacity="0" result="BackgroundImageFix"/>
<feColorMatrix in="SourceAlpha" type="matrix" values="0 0 0 0 0 0 0 0 0 0 0 0 0 0 0 0 0 0 127 0" result="hardAlpha"/>
<feOffset dy="4"/>
<feGaussianBlur stdDeviation="2"/>
<feComposite in2="hardAlpha" operator="out"/>
<feColorMatrix type="matrix" values="0 0 0 0 0 0 0 0 0 0 0 0 0 0 0 0 0 0 0.25 0"/>
<feBlend mode="normal" in2="BackgroundImageFix" result="effect1_dropShadow_333_1119"/>
<feBlend mode="normal" in="SourceGraphic" in2="effect1_dropShadow_333_1119" result="shape"/>
</filter>
<linearGradient id="paint0_linear_333_1119" x1="81.793" y1="68.7444" x2="301.219" y2="270.938" gradientUnits="userSpaceOnUse">
<stop stop-color="#2F88FF"/>
<stop offset="1" stop-color="#1C5299"/>
</linearGradient>
<linearGradient id="paint1_linear_333_1119" x1="81.793" y1="68.7444" x2="323.404" y2="281.56" gradientUnits="userSpaceOnUse">
<stop stop-color="#2F88FF"/>
<stop offset="1" stop-color="#1C5299"/>
</linearGradient>
<linearGradient id="paint2_linear_333_1119" x1="-39.2084" y1="202.752" x2="185.234" y2="117.688" gradientUnits="userSpaceOnUse">
<stop stop-color="#FF3A3A"/>
<stop offset="1" stop-color="#992323"/>
</linearGradient>
<linearGradient id="paint3_linear_333_1119" x1="-38.5885" y1="147.596" x2="121.392" y2="231.281" gradientUnits="userSpaceOnUse">
<stop stop-color="#FF3A3A"/>
<stop offset="1" stop-color="#992323"/>
</linearGradient>
<linearGradient id="paint4_linear_333_1119" x1="97.2484" y1="110.724" x2="-50.8749" y2="-21.6542" gradientUnits="userSpaceOnUse">
<stop stop-color="#FFFF3A"/>
<stop offset="0.5" stop-color="#CCCC2E"/>
<stop offset="1" stop-color="#979726"/>
</linearGradient>
<linearGradient id="paint5_linear_333_1119" x1="-5.15694" y1="17.0425" x2="139.825" y2="116.256" gradientUnits="userSpaceOnUse">
<stop stop-color="#FFFF3A"/>
<stop offset="0.5" stop-color="#CCCC2E"/>
<stop offset="1" stop-color="#979726"/>
</linearGradient>
<linearGradient id="paint6_linear_333_1119" x1="104.867" y1="-15.0469" x2="328.888" y2="98.5669" gradientUnits="userSpaceOnUse">
<stop stop-color="#2AD34F"/>
<stop offset="1" stop-color="#166D29"/>
</linearGradient>
<linearGradient id="paint7_linear_333_1119" x1="105.269" y1="2.53641" x2="251.735" y2="105.963" gradientUnits="userSpaceOnUse">
<stop stop-color="#2AD34F"/>
<stop offset="0.439849" stop-color="#20A03C"/>
<stop offset="1" stop-color="#166D29"/>
</linearGradient>
</defs>
</svg>
