<svg width="335" height="20" viewBox="0 0 335 20" fill="none" xmlns="http://www.w3.org/2000/svg">
<line x1="0.5" y1="9.5" x2="85.5" y2="9.5" stroke="#7B7A7A"/>
<path d="M119.561 10.344C119.614 10.4933 119.651 10.664 119.673 10.856C119.705 11.0373 119.721 11.224 119.721 11.416C119.721 11.608 119.705 11.8 119.673 11.992C119.651 12.1733 119.619 12.3333 119.577 12.472C119.406 13.0693 119.065 13.5707 118.553 13.976C118.041 14.3707 117.454 14.6587 116.793 14.84C116.142 15.0213 115.465 15.0853 114.761 15.032C114.067 14.9787 113.449 14.8027 112.905 14.504C112.563 14.312 112.27 14.0773 112.025 13.8C111.779 13.5227 111.571 13.2133 111.401 12.872C111.337 12.7547 111.294 12.6213 111.273 12.472C111.262 12.312 111.278 12.1627 111.321 12.024C111.363 11.8747 111.433 11.7467 111.529 11.64C111.625 11.5227 111.758 11.4427 111.929 11.4C112.035 11.3787 112.153 11.368 112.281 11.368C112.419 11.368 112.553 11.3893 112.681 11.432C112.809 11.464 112.926 11.5227 113.033 11.608C113.139 11.6827 113.225 11.7893 113.289 11.928C113.406 12.152 113.571 12.36 113.785 12.552C114.009 12.7333 114.243 12.8827 114.489 13C114.841 13.1173 115.193 13.1653 115.545 13.144C115.907 13.1227 116.233 13.0427 116.521 12.904C116.819 12.7653 117.059 12.5787 117.241 12.344C117.422 12.0987 117.513 11.8213 117.513 11.512C117.513 11.256 117.475 11.048 117.401 10.888C117.326 10.7173 117.219 10.5787 117.081 10.472C116.953 10.3547 116.793 10.2587 116.601 10.184C116.419 10.1093 116.217 10.0453 115.993 9.992C115.737 9.93867 115.475 9.90133 115.209 9.88C114.953 9.85867 114.691 9.832 114.425 9.8C114.158 9.768 113.897 9.72533 113.641 9.672C113.385 9.61867 113.134 9.53867 112.889 9.432C112.398 9.22933 112.025 8.92 111.769 8.504C111.513 8.088 111.358 7.64 111.305 7.16C111.262 6.68 111.321 6.20533 111.481 5.736C111.641 5.256 111.897 4.84533 112.249 4.504C112.59 4.19467 112.995 3.976 113.465 3.848C113.945 3.70933 114.473 3.62933 115.049 3.608C115.369 3.59733 115.689 3.608 116.009 3.64C116.339 3.672 116.654 3.72533 116.953 3.8C117.262 3.87467 117.545 3.97067 117.801 4.088C118.067 4.20533 118.297 4.344 118.489 4.504C118.627 4.61067 118.766 4.75467 118.905 4.936C119.043 5.10667 119.15 5.29333 119.225 5.496C119.299 5.688 119.321 5.87467 119.289 6.056C119.267 6.23733 119.155 6.392 118.953 6.52C118.782 6.62667 118.617 6.67467 118.457 6.664C118.307 6.64267 118.163 6.59467 118.025 6.52C117.886 6.43467 117.753 6.33867 117.625 6.232C117.497 6.12533 117.379 6.02933 117.273 5.944C116.985 5.73067 116.627 5.58667 116.201 5.512C115.774 5.43733 115.374 5.42133 115.001 5.464C114.766 5.496 114.547 5.54933 114.345 5.624C114.142 5.69867 113.966 5.8 113.817 5.928C113.678 6.056 113.566 6.216 113.481 6.408C113.406 6.58933 113.379 6.79733 113.401 7.032C113.411 7.20267 113.459 7.34667 113.545 7.464C113.641 7.58133 113.753 7.67733 113.881 7.752C114.019 7.82667 114.169 7.88533 114.329 7.928C114.489 7.97067 114.649 8.00267 114.809 8.024C115.289 8.088 115.769 8.136 116.249 8.168C116.729 8.2 117.198 8.30667 117.657 8.488C118.126 8.66933 118.526 8.91467 118.857 9.224C119.187 9.53333 119.422 9.90667 119.561 10.344ZM129.711 13.784C129.701 13.9653 129.674 14.1573 129.631 14.36C129.599 14.5627 129.498 14.728 129.327 14.856C129.199 14.9627 129.055 15.0267 128.895 15.048C128.735 15.0693 128.575 15.0587 128.415 15.016C128.266 14.984 128.122 14.9307 127.983 14.856C127.845 14.7707 127.733 14.6693 127.647 14.552C127.285 14.104 126.949 13.6453 126.639 13.176C126.341 12.696 126.037 12.216 125.727 11.736L124.383 9.704C124.202 9.416 124.01 9.096 123.807 8.744C123.605 8.38133 123.397 8.04533 123.183 7.736L123.135 13.848V13.992C123.135 14.1627 123.103 14.3333 123.039 14.504C122.986 14.664 122.89 14.8027 122.751 14.92C122.645 15.0053 122.506 15.064 122.335 15.096C122.069 15.1493 121.845 15.1333 121.663 15.048C121.493 14.9627 121.354 14.8453 121.247 14.696C121.151 14.5467 121.082 14.376 121.039 14.184C121.007 13.9813 121.002 13.784 121.023 13.592V13.32L121.055 12.072L121.071 9.752C121.082 9.41067 121.087 9.064 121.087 8.712C121.087 8.34933 121.087 7.98133 121.087 7.608C121.077 7.14933 121.077 6.664 121.087 6.152C121.109 5.64 121.13 5.16 121.151 4.712C121.173 4.46667 121.231 4.25867 121.327 4.088C121.37 3.93867 121.482 3.81067 121.663 3.704C121.781 3.62933 121.93 3.58133 122.111 3.56C122.303 3.53867 122.469 3.544 122.607 3.576C122.661 3.59733 122.714 3.624 122.767 3.656C122.821 3.67733 122.874 3.704 122.927 3.736C122.981 3.77867 123.029 3.82133 123.071 3.864C123.125 3.90667 123.173 3.95467 123.215 4.008C123.269 4.06133 123.317 4.12 123.359 4.184C123.402 4.23733 123.445 4.29067 123.487 4.344C123.519 4.408 123.551 4.46667 123.583 4.52C123.615 4.57333 123.653 4.62667 123.695 4.68L123.871 4.936L127.567 10.76V9.704C127.567 9.36267 127.562 9.016 127.551 8.664C127.551 8.30133 127.546 7.928 127.535 7.544C127.535 7.096 127.535 6.616 127.535 6.104C127.546 5.592 127.562 5.112 127.583 4.664C127.583 4.48267 127.637 4.27467 127.743 4.04C127.797 3.90133 127.887 3.78933 128.015 3.704C128.143 3.61867 128.287 3.56 128.447 3.528C128.607 3.496 128.767 3.496 128.927 3.528C129.087 3.56 129.226 3.624 129.343 3.72C129.375 3.752 129.407 3.78933 129.439 3.832C129.471 3.87467 129.498 3.92267 129.519 3.976C129.573 4.11467 129.605 4.23733 129.615 4.344C129.647 4.49333 129.663 4.62667 129.663 4.744C129.663 6.07733 129.663 7.43733 129.663 8.824C129.674 10.2107 129.685 11.5707 129.695 12.904C129.695 13.0533 129.701 13.2027 129.711 13.352C129.722 13.4907 129.722 13.6347 129.711 13.784ZM139.295 10.344C139.349 10.4933 139.386 10.664 139.407 10.856C139.439 11.0373 139.455 11.224 139.455 11.416C139.455 11.608 139.439 11.8 139.407 11.992C139.386 12.1733 139.354 12.3333 139.311 12.472C139.141 13.0693 138.799 13.5707 138.287 13.976C137.775 14.3707 137.189 14.6587 136.527 14.84C135.877 15.0213 135.199 15.0853 134.495 15.032C133.802 14.9787 133.183 14.8027 132.639 14.504C132.298 14.312 132.005 14.0773 131.759 13.8C131.514 13.5227 131.306 13.2133 131.135 12.872C131.071 12.7547 131.029 12.6213 131.007 12.472C130.997 12.312 131.013 12.1627 131.055 12.024C131.098 11.8747 131.167 11.7467 131.263 11.64C131.359 11.5227 131.493 11.4427 131.663 11.4C131.77 11.3787 131.887 11.368 132.015 11.368C132.154 11.368 132.287 11.3893 132.415 11.432C132.543 11.464 132.661 11.5227 132.767 11.608C132.874 11.6827 132.959 11.7893 133.023 11.928C133.141 12.152 133.306 12.36 133.519 12.552C133.743 12.7333 133.978 12.8827 134.223 13C134.575 13.1173 134.927 13.1653 135.279 13.144C135.642 13.1227 135.967 13.0427 136.255 12.904C136.554 12.7653 136.794 12.5787 136.975 12.344C137.157 12.0987 137.247 11.8213 137.247 11.512C137.247 11.256 137.21 11.048 137.135 10.888C137.061 10.7173 136.954 10.5787 136.815 10.472C136.687 10.3547 136.527 10.2587 136.335 10.184C136.154 10.1093 135.951 10.0453 135.727 9.992C135.471 9.93867 135.21 9.90133 134.943 9.88C134.687 9.85867 134.426 9.832 134.159 9.8C133.893 9.768 133.631 9.72533 133.375 9.672C133.119 9.61867 132.869 9.53867 132.623 9.432C132.133 9.22933 131.759 8.92 131.503 8.504C131.247 8.088 131.093 7.64 131.039 7.16C130.997 6.68 131.055 6.20533 131.215 5.736C131.375 5.256 131.631 4.84533 131.983 4.504C132.325 4.19467 132.73 3.976 133.199 3.848C133.679 3.70933 134.207 3.62933 134.783 3.608C135.103 3.59733 135.423 3.608 135.743 3.64C136.074 3.672 136.389 3.72533 136.687 3.8C136.997 3.87467 137.279 3.97067 137.535 4.088C137.802 4.20533 138.031 4.344 138.223 4.504C138.362 4.61067 138.501 4.75467 138.639 4.936C138.778 5.10667 138.885 5.29333 138.959 5.496C139.034 5.688 139.055 5.87467 139.023 6.056C139.002 6.23733 138.89 6.392 138.687 6.52C138.517 6.62667 138.351 6.67467 138.191 6.664C138.042 6.64267 137.898 6.59467 137.759 6.52C137.621 6.43467 137.487 6.33867 137.359 6.232C137.231 6.12533 137.114 6.02933 137.007 5.944C136.719 5.73067 136.362 5.58667 135.935 5.512C135.509 5.43733 135.109 5.42133 134.735 5.464C134.501 5.496 134.282 5.54933 134.079 5.624C133.877 5.69867 133.701 5.8 133.551 5.928C133.413 6.056 133.301 6.216 133.215 6.408C133.141 6.58933 133.114 6.79733 133.135 7.032C133.146 7.20267 133.194 7.34667 133.279 7.464C133.375 7.58133 133.487 7.67733 133.615 7.752C133.754 7.82667 133.903 7.88533 134.063 7.928C134.223 7.97067 134.383 8.00267 134.543 8.024C135.023 8.088 135.503 8.136 135.983 8.168C136.463 8.2 136.933 8.30667 137.391 8.488C137.861 8.66933 138.261 8.91467 138.591 9.224C138.922 9.53333 139.157 9.90667 139.295 10.344ZM149.058 13.304C149.058 13.144 149.058 12.9947 149.058 12.856C149.058 12.7067 149.058 12.5307 149.058 12.328C149.058 12.1253 149.053 11.8853 149.042 11.608C149.042 11.3307 149.042 10.9733 149.042 10.536C149.042 10.0987 149.042 9.576 149.042 8.968C149.042 8.34933 149.042 7.608 149.042 6.744C149.042 6.56267 149.042 6.392 149.042 6.232C149.042 6.06133 149.032 5.88533 149.01 5.704C148.978 5.512 148.93 5.38933 148.866 5.336C148.802 5.28267 148.674 5.256 148.482 5.256C148.248 5.256 148.04 5.256 147.858 5.256C147.677 5.256 147.501 5.256 147.33 5.256C147.16 5.256 146.984 5.256 146.802 5.256C146.632 5.256 146.445 5.256 146.242 5.256C145.869 5.256 145.586 5.16 145.394 4.968C145.213 4.776 145.122 4.52533 145.122 4.216C145.122 3.98133 145.186 3.8 145.314 3.672C145.442 3.53333 145.608 3.432 145.81 3.368C146.013 3.304 146.237 3.26667 146.482 3.256C146.728 3.23467 146.973 3.224 147.218 3.224H149.346C149.4 3.224 149.453 3.22933 149.506 3.24C149.57 3.24 149.629 3.24 149.682 3.24C149.938 3.25067 150.189 3.304 150.434 3.4C150.52 3.432 150.6 3.47467 150.674 3.528C150.76 3.58133 150.829 3.64533 150.882 3.72C150.989 3.86933 151.048 4.008 151.058 4.136C151.069 4.264 151.085 4.41867 151.106 4.6C151.117 4.77067 151.122 4.99467 151.122 5.272C151.133 5.53867 151.138 5.75733 151.138 5.928C151.224 5.91733 151.304 5.912 151.378 5.912C151.453 5.912 151.522 5.912 151.586 5.912H152.802V4.296C152.802 4.15733 152.802 4.01867 152.802 3.88C152.802 3.73067 152.818 3.58667 152.85 3.448C152.872 3.39467 152.888 3.34667 152.898 3.304C152.92 3.26133 152.941 3.21333 152.962 3.16C153.026 3.05333 153.09 2.97333 153.154 2.92C153.218 2.856 153.309 2.80267 153.426 2.76C153.522 2.728 153.618 2.712 153.714 2.712C154.066 2.712 154.333 2.872 154.514 3.192C154.557 3.256 154.589 3.34667 154.61 3.464C154.632 3.58133 154.648 3.704 154.658 3.832C154.669 3.94933 154.674 4.056 154.674 4.152C154.674 4.23733 154.674 4.29067 154.674 4.312V11.88C154.674 12.68 154.669 13.256 154.658 13.608C154.658 13.8747 154.648 14.088 154.626 14.248C154.616 14.408 154.568 14.6107 154.482 14.856C154.429 15.016 154.338 15.1493 154.21 15.256C154.082 15.3627 153.901 15.416 153.666 15.416C153.602 15.416 153.528 15.4053 153.442 15.384C153.368 15.3733 153.304 15.3467 153.25 15.304C153.144 15.24 153.058 15.1387 152.994 15C152.941 14.8507 152.898 14.696 152.866 14.536C152.834 14.376 152.813 14.2213 152.802 14.072C152.802 13.9227 152.802 13.8053 152.802 13.72V11.832L151.298 11.8C151.224 11.8 151.17 11.7947 151.138 11.784C151.138 11.7947 151.138 11.8587 151.138 11.976C151.149 12.0933 151.154 12.2373 151.154 12.408C151.154 12.5787 151.154 12.7653 151.154 12.968C151.154 13.16 151.149 13.3413 151.138 13.512C151.106 13.896 150.984 14.2053 150.77 14.44C150.568 14.6747 150.28 14.792 149.906 14.792C149.714 14.792 149.56 14.744 149.442 14.648C149.325 14.552 149.24 14.4293 149.186 14.28C149.133 14.1307 149.096 13.9707 149.074 13.8C149.064 13.6187 149.058 13.4533 149.058 13.304ZM157.49 4.632C157.512 5.432 157.517 6.248 157.506 7.08C157.496 7.90133 157.49 8.69067 157.49 9.448V13.448C157.49 13.7253 157.48 13.992 157.458 14.248C157.448 14.504 157.389 14.744 157.282 14.968C157.218 15.1067 157.117 15.224 156.978 15.32C156.861 15.3947 156.76 15.4373 156.674 15.448C156.589 15.4693 156.477 15.464 156.338 15.432C156.178 15.4 156.05 15.3307 155.954 15.224C155.858 15.128 155.778 15.016 155.714 14.888C155.661 14.76 155.624 14.6213 155.602 14.472C155.592 14.3227 155.586 14.1787 155.586 14.04V4.472C155.586 4.35467 155.586 4.22133 155.586 4.072C155.586 3.912 155.592 3.76267 155.602 3.624C155.624 3.47467 155.65 3.336 155.682 3.208C155.725 3.08 155.784 2.97867 155.858 2.904C155.976 2.79733 156.098 2.73333 156.226 2.712C156.354 2.68 156.493 2.664 156.642 2.664C156.856 2.664 157.021 2.73867 157.138 2.888C157.256 3.03733 157.336 3.21867 157.378 3.432C157.432 3.64533 157.464 3.864 157.474 4.088C157.485 4.312 157.49 4.49333 157.49 4.632ZM151.298 7.8C151.224 7.8 151.17 7.79467 151.138 7.784V9.96C151.224 9.94933 151.304 9.944 151.378 9.944C151.453 9.944 151.522 9.944 151.586 9.944H152.802V7.832L151.298 7.8ZM159.508 13.08C159.508 12.6 159.646 12.2 159.924 11.88C160.212 11.56 160.596 11.3093 161.076 11.128C161.556 10.936 162.121 10.8027 162.772 10.728C163.422 10.6533 164.116 10.616 164.852 10.616C165.588 10.616 166.281 10.6427 166.932 10.696C167.582 10.7493 168.148 10.8667 168.628 11.048C169.108 11.2187 169.486 11.464 169.764 11.784C170.052 12.104 170.196 12.536 170.196 13.08C170.196 13.6133 170.052 14.04 169.764 14.36C169.486 14.68 169.108 14.9253 168.628 15.096C168.148 15.2773 167.582 15.3947 166.932 15.448C166.281 15.512 165.588 15.544 164.852 15.544C164.116 15.544 163.422 15.512 162.772 15.448C162.121 15.3947 161.556 15.2773 161.076 15.096C160.596 14.9253 160.212 14.68 159.924 14.36C159.646 14.04 159.508 13.6133 159.508 13.08ZM163.588 4.648C163.588 4.648 163.582 4.712 163.572 4.84C163.572 4.968 163.572 5.112 163.572 5.272C163.572 5.432 163.572 5.58133 163.572 5.72C163.582 5.85867 163.588 5.93867 163.588 5.96C163.641 6.01333 163.737 6.104 163.876 6.232C164.014 6.34933 164.132 6.45067 164.228 6.536C164.334 6.62133 164.441 6.71733 164.548 6.824C164.665 6.92 164.782 7.02667 164.9 7.144C164.974 7.21867 165.044 7.29333 165.108 7.368C165.172 7.432 165.23 7.49067 165.284 7.544C165.486 7.74667 165.689 7.96533 165.892 8.2C166.094 8.43467 166.233 8.67467 166.308 8.92C166.34 9.016 166.345 9.12267 166.324 9.24C166.302 9.35733 166.233 9.45867 166.116 9.544C165.934 9.65067 165.742 9.704 165.54 9.704C165.305 9.704 165.081 9.656 164.868 9.56C164.654 9.464 164.484 9.368 164.356 9.272C164.153 9.12267 163.966 8.968 163.796 8.808C163.625 8.63733 163.454 8.46667 163.284 8.296C163.166 8.17867 163.033 8.04533 162.884 7.896C162.734 7.736 162.585 7.59733 162.436 7.48L162.004 7.912C161.929 7.98667 161.854 8.06133 161.78 8.136C161.705 8.2 161.636 8.26933 161.572 8.344C161.433 8.49333 161.289 8.648 161.14 8.808C160.99 8.95733 160.82 9.10133 160.628 9.24C160.19 9.56 159.78 9.72 159.396 9.72C159.342 9.72 159.294 9.72 159.252 9.72C159.22 9.72 159.177 9.70933 159.124 9.688C158.889 9.63467 158.734 9.53867 158.66 9.4C158.585 9.28267 158.558 9.14933 158.58 9C158.612 8.85067 158.66 8.71733 158.724 8.6C158.809 8.48267 158.905 8.37067 159.012 8.264C159.118 8.14667 159.225 8.02933 159.332 7.912C159.428 7.80533 159.577 7.656 159.78 7.464C159.993 7.26133 160.206 7.05867 160.42 6.856C160.633 6.64267 160.83 6.45067 161.012 6.28C161.193 6.10933 161.305 6.00267 161.348 5.96V4.648H160.324C160.196 4.648 160.046 4.65333 159.876 4.664C159.705 4.664 159.534 4.65333 159.364 4.632C159.204 4.61067 159.054 4.568 158.916 4.504C158.777 4.42933 158.676 4.312 158.612 4.152C158.558 4.03467 158.521 3.90133 158.5 3.752C158.489 3.60267 158.5 3.464 158.532 3.336C158.574 3.18667 158.67 3.08533 158.82 3.032C158.969 2.968 159.113 2.92533 159.252 2.904C159.273 2.904 159.358 2.904 159.508 2.904C159.668 2.904 159.838 2.904 160.02 2.904C160.201 2.904 160.372 2.904 160.532 2.904C160.692 2.904 160.788 2.89867 160.82 2.888H164.564C164.99 2.888 165.348 2.91467 165.636 2.968C165.934 3.02133 166.174 3.15467 166.356 3.368C166.409 3.432 166.441 3.51733 166.452 3.624C166.473 3.73067 166.473 3.84267 166.452 3.96C166.441 4.06667 166.409 4.168 166.356 4.264C166.313 4.36 166.249 4.42933 166.164 4.472C166.078 4.504 165.977 4.54133 165.86 4.584C165.742 4.616 165.641 4.63733 165.556 4.648C165.406 4.65867 165.252 4.664 165.092 4.664C164.942 4.65333 164.793 4.648 164.644 4.648H163.588ZM167.204 7.352C166.894 7.33067 166.617 7.31467 166.372 7.304C166.126 7.28267 165.934 7.16533 165.796 6.952C165.732 6.84533 165.7 6.70667 165.7 6.536C165.7 6.36533 165.71 6.22133 165.732 6.104C165.764 5.98667 165.822 5.89067 165.908 5.816C165.993 5.73067 166.142 5.66133 166.356 5.608C166.398 5.59733 166.5 5.592 166.66 5.592C166.83 5.58133 167.012 5.576 167.204 5.576C167.396 5.56533 167.577 5.56 167.748 5.56C167.918 5.54933 168.025 5.544 168.068 5.544V4.024C168.057 3.90667 168.052 3.78933 168.052 3.672C168.062 3.55467 168.084 3.43733 168.116 3.32C168.137 3.23467 168.158 3.15467 168.18 3.08C168.201 3.00533 168.249 2.92533 168.324 2.84C168.409 2.73333 168.526 2.65867 168.676 2.616C168.836 2.57333 169.006 2.56267 169.188 2.584C169.348 2.60533 169.492 2.65333 169.62 2.728C169.748 2.792 169.838 2.87733 169.892 2.984C169.956 3.112 169.993 3.272 170.004 3.464C170.025 3.64533 170.036 3.75733 170.036 3.8V9.288H170.02C170.02 9.29867 170.014 9.336 170.004 9.4C169.993 9.464 169.972 9.544 169.94 9.64C169.908 9.72533 169.86 9.816 169.796 9.912C169.732 10.008 169.646 10.088 169.54 10.152C169.39 10.2373 169.225 10.28 169.044 10.28C168.862 10.28 168.686 10.2213 168.516 10.104C168.388 10.0187 168.297 9.912 168.244 9.784C168.18 9.66667 168.137 9.54933 168.116 9.432C168.094 9.31467 168.078 9.19733 168.068 9.08V7.352H167.204ZM168.036 13.08C168.036 12.8987 167.94 12.7547 167.748 12.648C167.556 12.5413 167.305 12.4613 166.996 12.408C166.697 12.3547 166.356 12.3227 165.972 12.312C165.598 12.2907 165.225 12.28 164.852 12.28C164.478 12.28 164.105 12.2907 163.732 12.312C163.369 12.3227 163.038 12.3547 162.74 12.408C162.452 12.4613 162.217 12.5413 162.036 12.648C161.854 12.7547 161.764 12.8987 161.764 13.08C161.764 13.24 161.854 13.3733 162.036 13.48C162.217 13.5867 162.452 13.6667 162.74 13.72C163.038 13.7733 163.369 13.8107 163.732 13.832C164.105 13.8533 164.478 13.864 164.852 13.864C165.225 13.864 165.598 13.864 165.972 13.864C166.356 13.864 166.697 13.8427 166.996 13.8C167.305 13.7573 167.556 13.6827 167.748 13.576C167.94 13.4587 168.036 13.2933 168.036 13.08ZM186.929 12.632C186.961 12.6427 186.993 12.648 187.025 12.648C187.057 12.6373 187.089 12.632 187.121 12.632C187.302 12.6533 187.467 12.6907 187.617 12.744C187.777 12.7867 187.931 12.872 188.081 13C188.23 13.1493 188.305 13.336 188.305 13.56C188.305 13.6773 188.283 13.8053 188.241 13.944C188.209 14.072 188.161 14.1733 188.097 14.248C188.011 14.3333 187.905 14.3973 187.777 14.44C187.649 14.4827 187.526 14.5147 187.409 14.536C187.291 14.5467 187.185 14.552 187.089 14.552C187.003 14.552 186.955 14.552 186.945 14.552H177.985C177.931 14.552 177.878 14.5573 177.825 14.568C177.771 14.568 177.718 14.568 177.665 14.568C177.441 14.5787 177.201 14.5787 176.945 14.568C176.689 14.5467 176.47 14.4613 176.289 14.312C176.065 14.1093 175.953 13.88 175.953 13.624C175.953 13.464 176.001 13.2987 176.097 13.128C176.193 12.9573 176.321 12.84 176.481 12.776C176.694 12.6907 176.913 12.648 177.137 12.648C177.371 12.648 177.606 12.6427 177.841 12.632H177.921C178.945 12.6107 179.99 12.6107 181.057 12.632L181.041 11.128H179.377C179.163 11.128 178.939 11.128 178.705 11.128C178.481 11.128 178.251 11.1227 178.017 11.112C177.793 11.0907 177.606 10.9787 177.457 10.776C177.307 10.5733 177.222 10.3333 177.201 10.056C177.19 9.96 177.179 9.80533 177.169 9.592C177.169 9.37867 177.163 9.15467 177.153 8.92C177.153 8.68533 177.153 8.46667 177.153 8.264C177.153 8.06133 177.153 7.91733 177.153 7.832V7.448C177.142 7.32 177.142 7.18667 177.153 7.048C177.174 6.89867 177.233 6.76533 177.329 6.648C177.467 6.46667 177.659 6.35467 177.905 6.312C178.161 6.25867 178.406 6.232 178.641 6.232C178.694 6.232 178.779 6.23733 178.897 6.248C179.025 6.25867 179.126 6.25867 179.201 6.248H184.881V4.904H179.041C178.987 4.904 178.929 4.90933 178.865 4.92C178.801 4.92 178.742 4.92 178.689 4.92C178.625 4.92 178.555 4.92533 178.481 4.936C178.417 4.936 178.353 4.936 178.289 4.936C178.065 4.936 177.883 4.91467 177.745 4.872C177.563 4.82933 177.414 4.70667 177.297 4.504C177.158 4.25867 177.121 3.99733 177.185 3.72C177.238 3.528 177.361 3.384 177.553 3.288C177.745 3.192 177.899 3.13333 178.017 3.112C178.102 3.09067 178.182 3.08 178.257 3.08C178.342 3.08 178.433 3.08 178.529 3.08H179.089C179.259 3.08 179.467 3.08533 179.713 3.096C179.969 3.096 180.235 3.096 180.513 3.096C180.79 3.096 181.067 3.096 181.345 3.096C181.633 3.08533 181.894 3.08 182.129 3.08H185.361C185.542 3.08 185.723 3.08533 185.905 3.096C186.086 3.10667 186.262 3.13867 186.433 3.192C186.689 3.26667 186.854 3.432 186.929 3.688C187.003 3.93333 187.041 4.17333 187.041 4.408V6.52C187.041 6.60533 187.03 6.71733 187.009 6.856C186.998 6.99467 186.977 7.13867 186.945 7.288C186.913 7.43733 186.865 7.58133 186.801 7.72C186.747 7.848 186.678 7.93867 186.593 7.992C186.443 8.07733 186.299 8.13067 186.161 8.152C186.022 8.16267 185.889 8.16267 185.761 8.152H179.441V9.432H185.777C185.873 9.432 185.963 9.432 186.049 9.432C186.145 9.432 186.235 9.43733 186.321 9.448C186.481 9.45867 186.625 9.50667 186.753 9.592C186.891 9.66667 186.987 9.79467 187.041 9.976C187.094 10.1893 187.083 10.392 187.009 10.584C186.945 10.776 186.817 10.9147 186.625 11C186.497 11.0533 186.363 11.0907 186.225 11.112C186.097 11.1227 185.974 11.128 185.857 11.128H183.105L183.121 12.632C183.377 12.632 183.611 12.632 183.825 12.632C184.049 12.6213 184.267 12.616 184.481 12.616C184.705 12.616 184.923 12.6213 185.137 12.632C185.361 12.632 185.595 12.632 185.841 12.632C186.033 12.6427 186.219 12.6427 186.401 12.632C186.582 12.6107 186.758 12.6107 186.929 12.632ZM190.969 5.688C190.777 5.688 190.564 5.64 190.329 5.544C190.105 5.448 189.935 5.304 189.817 5.112C189.711 4.94133 189.663 4.72267 189.673 4.456C189.695 4.17867 189.785 3.97067 189.945 3.832C190.073 3.72533 190.217 3.65067 190.377 3.608C190.548 3.55467 190.724 3.52267 190.905 3.512C191.087 3.49067 191.263 3.48 191.433 3.48C191.615 3.48 191.785 3.48 191.945 3.48H192.473C192.559 3.46933 192.644 3.46933 192.729 3.48C192.825 3.48 192.921 3.48 193.017 3.48C193.103 3.48 193.3 3.48 193.609 3.48C193.919 3.48 194.255 3.48 194.617 3.48C194.98 3.48 195.316 3.48 195.625 3.48C195.935 3.48 196.132 3.48 196.217 3.48C196.377 3.49067 196.537 3.496 196.697 3.496C196.868 3.48533 197.039 3.48 197.209 3.48C197.391 3.48 197.583 3.48533 197.785 3.496C197.988 3.50667 198.18 3.53867 198.361 3.592C198.543 3.64533 198.708 3.73067 198.857 3.848C199.007 3.95467 199.113 4.11467 199.177 4.328C199.263 4.616 199.311 4.90933 199.321 5.208C199.343 5.496 199.353 5.81067 199.353 6.152C199.343 6.39733 199.337 6.6 199.337 6.76C199.348 6.90933 199.353 7.10667 199.353 7.352C199.353 7.46933 199.353 7.58667 199.353 7.704C199.353 7.82133 199.359 7.93867 199.369 8.056C199.369 8.19467 199.369 8.34933 199.369 8.52C199.369 8.69067 199.369 8.86667 199.369 9.048C199.369 9.21867 199.364 9.38933 199.353 9.56C199.353 9.73067 199.348 9.88533 199.337 10.024C199.295 10.184 199.263 10.344 199.241 10.504C199.231 10.6533 199.183 10.808 199.097 10.968C199.044 11.064 198.959 11.16 198.841 11.256C198.788 11.3093 198.708 11.352 198.601 11.384C198.505 11.4053 198.415 11.416 198.329 11.416C198.18 11.416 198.052 11.4 197.945 11.368C197.657 11.272 197.46 11.1387 197.353 10.968C197.257 10.7973 197.199 10.5893 197.177 10.344C197.167 10.2373 197.156 10.088 197.145 9.896C197.135 9.704 197.124 9.50667 197.113 9.304C197.113 9.10133 197.113 8.91467 197.113 8.744C197.113 8.57333 197.113 8.45067 197.113 8.376C197.092 8.024 197.081 7.704 197.081 7.416C197.081 7.11733 197.071 6.79733 197.049 6.456C197.039 6.36 197.039 6.26933 197.049 6.184C197.06 6.088 197.044 5.992 197.001 5.896C196.969 5.82133 196.921 5.77333 196.857 5.752C196.804 5.72 196.74 5.704 196.665 5.704C196.591 5.69333 196.516 5.69333 196.441 5.704C196.367 5.704 196.297 5.69867 196.233 5.688C196.116 5.67733 196.025 5.67733 195.961 5.688C195.908 5.688 195.823 5.688 195.705 5.688H192.185C192.121 5.688 192.047 5.688 191.961 5.688C191.876 5.67733 191.791 5.67733 191.705 5.688C191.588 5.70933 191.465 5.71467 191.337 5.704C191.209 5.69333 191.087 5.688 190.969 5.688ZM190.313 14.472C190.143 14.4613 189.972 14.44 189.801 14.408C189.641 14.3653 189.497 14.312 189.369 14.248C189.241 14.1733 189.135 14.072 189.049 13.944C188.975 13.816 188.937 13.6453 188.937 13.432C188.937 13.2187 189.007 13.032 189.145 12.872C189.231 12.7867 189.337 12.7227 189.465 12.68C189.593 12.6373 189.716 12.6053 189.833 12.584C189.951 12.5627 190.052 12.552 190.137 12.552C190.233 12.552 190.287 12.552 190.297 12.552L199.049 12.568C199.327 12.568 199.577 12.5733 199.801 12.584C200.036 12.584 200.244 12.6587 200.425 12.808C200.649 13.0107 200.761 13.24 200.761 13.496C200.761 13.656 200.713 13.8053 200.617 13.944C200.521 14.072 200.393 14.1627 200.233 14.216C200.02 14.3013 199.796 14.36 199.561 14.392C199.337 14.424 199.113 14.4453 198.889 14.456C198.111 14.488 197.343 14.4987 196.585 14.488C195.828 14.4773 195.092 14.472 194.377 14.472C193.609 14.472 192.857 14.4773 192.121 14.488C191.396 14.4987 190.793 14.4933 190.313 14.472ZM207.486 3.048C208.137 3.42133 208.601 3.90133 208.878 4.488C209.017 4.776 209.107 5.096 209.15 5.448C209.193 5.8 209.203 6.19467 209.182 6.632C209.15 7.112 209.043 7.544 208.862 7.928C208.681 8.312 208.441 8.64267 208.142 8.92C207.854 9.18667 207.513 9.39467 207.118 9.544C206.723 9.68267 206.302 9.752 205.854 9.752H205.038C204.931 9.752 204.825 9.752 204.718 9.752C204.611 9.74133 204.499 9.72533 204.382 9.704C204.265 9.704 204.153 9.688 204.046 9.656C203.939 9.624 203.827 9.59733 203.71 9.576C203.593 9.52267 203.475 9.464 203.358 9.4C203.251 9.336 203.123 9.26133 202.974 9.176C202.483 8.856 202.142 8.424 201.95 7.88C201.865 7.63467 201.801 7.37333 201.758 7.096C201.715 6.81867 201.694 6.54667 201.694 6.28C201.694 5.992 201.715 5.71467 201.758 5.448C201.811 5.18133 201.897 4.92533 202.014 4.68C202.099 4.424 202.227 4.2 202.398 4.008C202.569 3.80533 202.761 3.61333 202.974 3.432C203.166 3.272 203.363 3.13867 203.566 3.032C203.769 2.91467 203.993 2.824 204.238 2.76C204.451 2.67467 204.681 2.62133 204.926 2.6C205.171 2.57867 205.406 2.57867 205.63 2.6C205.747 2.632 205.843 2.65333 205.918 2.664C206.003 2.664 206.083 2.664 206.158 2.664C206.243 2.68533 206.318 2.70133 206.382 2.712C206.457 2.712 206.526 2.728 206.59 2.76C206.665 2.78133 206.734 2.80267 206.798 2.824C206.873 2.83467 206.942 2.856 207.006 2.888C207.07 2.90933 207.145 2.936 207.23 2.968C207.315 3 207.401 3.02667 207.486 3.048ZM212.83 13.544C212.979 13.544 213.102 13.608 213.198 13.736C213.294 13.864 213.358 14.0187 213.39 14.2C213.411 14.4133 213.401 14.5893 213.358 14.728C213.315 14.856 213.251 14.9787 213.166 15.096C213.006 15.2347 212.867 15.32 212.75 15.352C212.697 15.352 212.649 15.3627 212.606 15.384C212.563 15.4053 212.505 15.416 212.43 15.416H211.278H209.278H207.086H205.342H204.606C204.382 15.416 204.185 15.4107 204.014 15.4C203.854 15.3893 203.71 15.352 203.582 15.288C203.465 15.224 203.369 15.128 203.294 15C203.23 14.8827 203.198 14.7653 203.198 14.648V12.2V11.896V11.576V11.352C203.262 11.1173 203.369 10.9413 203.518 10.824C203.635 10.7493 203.742 10.696 203.838 10.664C203.945 10.6213 204.062 10.6 204.19 10.6C204.211 10.6 204.275 10.6107 204.382 10.632C204.499 10.6427 204.574 10.648 204.606 10.648C204.67 10.6693 204.729 10.696 204.782 10.728C204.846 10.7493 204.905 10.7973 204.958 10.872C204.979 10.9147 205.006 10.9627 205.038 11.016C205.07 11.0587 205.097 11.112 205.118 11.176C205.15 11.2507 205.166 11.32 205.166 11.384C205.177 11.448 205.193 11.512 205.214 11.576V11.976V12.28V12.792V13.272V13.496H205.534C205.598 13.5067 205.673 13.512 205.758 13.512C205.833 13.5227 205.913 13.528 205.998 13.528C206.083 13.528 206.179 13.528 206.286 13.528C206.35 13.528 206.51 13.528 206.766 13.528C207.033 13.528 207.347 13.528 207.71 13.528C208.083 13.5173 208.489 13.512 208.926 13.512C209.363 13.512 209.779 13.512 210.174 13.512C210.579 13.512 210.942 13.5173 211.262 13.528C211.593 13.528 211.838 13.528 211.998 13.528H212.398C212.419 13.528 212.467 13.5333 212.542 13.544C212.617 13.544 212.713 13.544 212.83 13.544ZM207.262 6.136C207.241 6.01867 207.219 5.91733 207.198 5.832C207.177 5.736 207.155 5.64 207.134 5.544C207.081 5.45867 207.033 5.37333 206.99 5.288C206.947 5.20267 206.889 5.128 206.814 5.064C206.75 5 206.675 4.94667 206.59 4.904C206.505 4.85067 206.403 4.79733 206.286 4.744C206.147 4.712 206.014 4.68533 205.886 4.664C205.758 4.632 205.625 4.616 205.486 4.616C205.337 4.616 205.193 4.632 205.054 4.664C204.915 4.68533 204.787 4.712 204.67 4.744C204.542 4.81867 204.419 4.89333 204.302 4.968C204.195 5.04267 204.099 5.13867 204.014 5.256C203.907 5.34133 203.827 5.45333 203.774 5.592C203.721 5.72 203.667 5.87467 203.614 6.056C203.614 6.17333 203.614 6.28533 203.614 6.392C203.614 6.49867 203.625 6.61067 203.646 6.728C203.646 6.83467 203.667 6.94133 203.71 7.048C203.753 7.15467 203.806 7.25067 203.87 7.336C203.945 7.432 204.025 7.51733 204.11 7.592C204.195 7.656 204.286 7.72 204.382 7.784C204.499 7.848 204.622 7.90667 204.75 7.96C204.878 8.00267 205.033 8.03467 205.214 8.056C205.331 8.056 205.443 8.056 205.55 8.056C205.657 8.04533 205.769 8.02933 205.886 8.008C206.099 8.008 206.307 7.94933 206.51 7.832C206.595 7.78933 206.681 7.736 206.766 7.672C206.862 7.59733 206.942 7.51733 207.006 7.432C207.145 7.24 207.23 7.032 207.262 6.808V6.136ZM213.294 9.4C213.294 9.50667 213.283 9.61333 213.262 9.72C213.241 9.82667 213.219 9.93867 213.198 10.056C213.102 10.3973 212.878 10.6053 212.526 10.68C212.185 10.7547 211.907 10.68 211.694 10.456C211.491 10.232 211.369 9.96533 211.326 9.656C211.305 9.57067 211.289 9.48533 211.278 9.4C211.278 9.304 211.278 9.21333 211.278 9.128V8.584L211.326 4.456C211.326 4.30667 211.321 4.14667 211.31 3.976C211.31 3.79467 211.321 3.624 211.342 3.464C211.374 3.29333 211.433 3.13867 211.518 3C211.603 2.86133 211.737 2.74933 211.918 2.664C212.003 2.61067 212.094 2.584 212.19 2.584C212.297 2.57333 212.409 2.57867 212.526 2.6C212.771 2.632 212.953 2.73333 213.07 2.904C213.198 3.07467 213.273 3.272 213.294 3.496V4.04V9.4Z" fill="black"/>
<line x1="239.5" y1="9.5" x2="334.5" y2="9.5" stroke="#7B7A7A"/>
</svg>
