<svg width="175" height="39" viewBox="0 0 175 39" fill="none" xmlns="http://www.w3.org/2000/svg">
<path d="M1.36975 7.632C1.14575 7.28 0.93775 6.8 0.74575 6.192C0.55375 5.584 0.45775 4.944 0.45775 4.272C0.45775 3.024 0.72975 2.128 1.27375 1.584C1.84975 1.04 2.58575 0.767999 3.48175 0.767999H24.4098C24.6338 1.12 24.8418 1.6 25.0338 2.208C25.2258 2.816 25.3218 3.456 25.3218 4.128C25.3218 5.376 25.0338 6.272 24.4578 6.816C23.9138 7.36 23.1938 7.632 22.2978 7.632H16.9698V29.808C16.6178 29.904 16.0578 30 15.2898 30.096C14.5538 30.192 13.8178 30.24 13.0818 30.24C12.3458 30.24 11.6898 30.176 11.1138 30.048C10.5698 29.952 10.1058 29.76 9.72175 29.472C9.33775 29.184 9.04975 28.784 8.85775 28.272C8.66575 27.76 8.56975 27.088 8.56975 26.256V7.632H1.36975ZM38.2383 30.768C36.3503 30.768 34.5903 30.512 32.9583 30C31.3583 29.456 29.9503 28.656 28.7343 27.6C27.5503 26.544 26.6063 25.216 25.9023 23.616C25.2303 22.016 24.8943 20.144 24.8943 18C24.8943 15.888 25.2303 14.08 25.9023 12.576C26.6063 11.04 27.5183 9.792 28.6383 8.832C29.7583 7.84 31.0383 7.12 32.4783 6.672C33.9183 6.192 35.3903 5.952 36.8943 5.952C38.5903 5.952 40.1263 6.208 41.5023 6.72C42.9103 7.232 44.1103 7.936 45.1023 8.832C46.1263 9.728 46.9103 10.8 47.4543 12.048C48.0303 13.296 48.3183 14.656 48.3183 16.128C48.3183 17.216 48.0143 18.048 47.4062 18.624C46.7983 19.2 45.9503 19.568 44.8623 19.728L33.0063 21.504C33.3583 22.56 34.0783 23.36 35.1663 23.904C36.2543 24.416 37.5023 24.672 38.9103 24.672C40.2223 24.672 41.4543 24.512 42.6063 24.192C43.7903 23.84 44.7503 23.44 45.4863 22.992C45.9983 23.312 46.4303 23.76 46.7823 24.336C47.1343 24.912 47.3103 25.52 47.3103 26.16C47.3103 27.6 46.6383 28.672 45.2943 29.376C44.2703 29.92 43.1183 30.288 41.8383 30.48C40.5583 30.672 39.3583 30.768 38.2383 30.768ZM36.8943 11.904C36.1263 11.904 35.4543 12.032 34.8783 12.288C34.3343 12.544 33.8863 12.88 33.5343 13.296C33.1823 13.68 32.9103 14.128 32.7183 14.64C32.5583 15.12 32.4623 15.616 32.4303 16.128L40.6383 14.784C40.5423 14.144 40.1903 13.504 39.5823 12.864C38.9743 12.224 38.0783 11.904 36.8943 11.904ZM62.23 24.816C62.774 24.816 63.366 24.768 64.006 24.672C64.678 24.544 65.174 24.384 65.494 24.192V20.352L62.038 20.64C61.142 20.704 60.406 20.896 59.83 21.216C59.254 21.536 58.966 22.016 58.966 22.656C58.966 23.296 59.206 23.824 59.686 24.24C60.198 24.624 61.046 24.816 62.23 24.816ZM61.846 5.952C63.574 5.952 65.142 6.128 66.55 6.48C67.99 6.832 69.206 7.376 70.198 8.112C71.222 8.816 72.006 9.728 72.55 10.848C73.094 11.936 73.366 13.232 73.366 14.736V25.488C73.366 26.32 73.126 27.008 72.646 27.552C72.198 28.064 71.654 28.512 71.014 28.896C68.934 30.144 66.006 30.768 62.23 30.768C60.534 30.768 58.998 30.608 57.622 30.288C56.278 29.968 55.11 29.488 54.118 28.848C53.158 28.208 52.406 27.392 51.862 26.4C51.35 25.408 51.094 24.256 51.094 22.944C51.094 20.736 51.75 19.04 53.062 17.856C54.374 16.672 56.406 15.936 59.158 15.648L65.446 14.976V14.64C65.446 13.712 65.03 13.056 64.198 12.672C63.398 12.256 62.23 12.048 60.694 12.048C59.478 12.048 58.294 12.176 57.142 12.432C55.99 12.688 54.95 13.008 54.022 13.392C53.606 13.104 53.254 12.672 52.966 12.096C52.678 11.488 52.534 10.864 52.534 10.224C52.534 9.392 52.726 8.736 53.11 8.256C53.526 7.744 54.15 7.312 54.982 6.96C55.91 6.608 56.998 6.352 58.246 6.192C59.526 6.032 60.726 5.952 61.846 5.952ZM89.5394 5.952C90.8514 5.952 92.1314 6.144 93.3794 6.528C94.6594 6.88 95.7634 7.424 96.6914 8.16C97.6514 7.52 98.7234 6.992 99.9074 6.576C101.123 6.16 102.579 5.952 104.275 5.952C105.491 5.952 106.675 6.112 107.827 6.432C109.011 6.752 110.051 7.264 110.947 7.968C111.875 8.64 112.611 9.552 113.155 10.704C113.699 11.824 113.971 13.2 113.971 14.832V29.952C113.651 30.048 113.139 30.144 112.435 30.24C111.763 30.336 111.059 30.384 110.323 30.384C109.619 30.384 108.979 30.336 108.403 30.24C107.859 30.144 107.395 29.952 107.011 29.664C106.627 29.376 106.323 28.992 106.099 28.512C105.907 28 105.811 27.344 105.811 26.544V15.072C105.811 14.112 105.539 13.424 104.995 13.008C104.451 12.56 103.715 12.336 102.787 12.336C102.339 12.336 101.859 12.448 101.347 12.672C100.835 12.864 100.451 13.072 100.195 13.296C100.227 13.424 100.243 13.552 100.243 13.68C100.243 13.776 100.243 13.872 100.243 13.968V29.952C99.8914 30.048 99.3634 30.144 98.6594 30.24C97.9874 30.336 97.2994 30.384 96.5954 30.384C95.8914 30.384 95.2514 30.336 94.6754 30.24C94.1314 30.144 93.6674 29.952 93.2834 29.664C92.8994 29.376 92.5954 28.992 92.3714 28.512C92.1794 28 92.0834 27.344 92.0834 26.544V15.072C92.0834 14.112 91.7794 13.424 91.1714 13.008C90.5954 12.56 89.8914 12.336 89.0594 12.336C88.4834 12.336 87.9874 12.432 87.5714 12.624C87.1554 12.784 86.8034 12.944 86.5154 13.104V29.952C86.1954 30.048 85.6834 30.144 84.9794 30.24C84.3074 30.336 83.6034 30.384 82.8674 30.384C82.1634 30.384 81.5234 30.336 80.9474 30.24C80.4034 30.144 79.9394 29.952 79.5554 29.664C79.1714 29.376 78.8674 28.992 78.6434 28.512C78.4514 28 78.3554 27.344 78.3554 26.544V12.048C78.3554 11.184 78.5314 10.496 78.8834 9.984C79.2674 9.472 79.7794 8.992 80.4194 8.544C81.5074 7.776 82.8514 7.152 84.4514 6.672C86.0834 6.192 87.7794 5.952 89.5394 5.952ZM145.349 19.248C145.349 20.976 145.045 22.56 144.437 24C143.861 25.408 143.013 26.624 141.893 27.648C140.773 28.64 139.413 29.408 137.813 29.952C136.213 30.496 134.405 30.768 132.389 30.768C130.373 30.768 128.565 30.496 126.965 29.952C125.365 29.408 124.005 28.64 122.885 27.648C121.765 26.624 120.901 25.408 120.293 24C119.717 22.56 119.429 20.976 119.429 19.248V0.912C119.781 0.847999 120.341 0.767999 121.109 0.672C121.877 0.544 122.613 0.48 123.317 0.48C124.053 0.48 124.693 0.544 125.237 0.672C125.813 0.767999 126.293 0.959998 126.677 1.248C127.061 1.536 127.349 1.936 127.541 2.448C127.733 2.96 127.829 3.632 127.829 4.464V19.104C127.829 20.64 128.245 21.84 129.077 22.704C129.941 23.568 131.045 24 132.389 24C133.765 24 134.869 23.568 135.701 22.704C136.533 21.84 136.949 20.64 136.949 19.104V0.912C137.301 0.847999 137.861 0.767999 138.629 0.672C139.397 0.544 140.133 0.48 140.837 0.48C141.573 0.48 142.213 0.544 142.757 0.672C143.333 0.767999 143.813 0.959998 144.197 1.248C144.581 1.536 144.869 1.936 145.061 2.448C145.253 2.96 145.349 3.632 145.349 4.464V19.248ZM161.528 5.952C163.448 5.952 165.224 6.208 166.856 6.72C168.52 7.2 169.944 7.952 171.128 8.976C172.312 10 173.24 11.296 173.912 12.864C174.584 14.4 174.92 16.24 174.92 18.384C174.92 20.432 174.632 22.224 174.056 23.76C173.48 25.296 172.664 26.592 171.608 27.648C170.552 28.672 169.272 29.44 167.768 29.952C166.296 30.464 164.648 30.72 162.824 30.72C161.448 30.72 160.168 30.512 158.984 30.096V38.064C158.664 38.16 158.152 38.256 157.448 38.352C156.744 38.48 156.024 38.544 155.288 38.544C154.584 38.544 153.944 38.496 153.368 38.4C152.824 38.304 152.36 38.112 151.976 37.824C151.592 37.536 151.304 37.136 151.112 36.624C150.92 36.144 150.824 35.504 150.824 34.704V11.664C150.824 10.8 151 10.096 151.352 9.552C151.736 9.008 152.248 8.512 152.888 8.064C153.88 7.424 155.112 6.912 156.584 6.528C158.056 6.144 159.704 5.952 161.528 5.952ZM161.624 24.288C164.92 24.288 166.568 22.32 166.568 18.384C166.568 16.336 166.152 14.816 165.32 13.824C164.52 12.832 163.352 12.336 161.816 12.336C161.208 12.336 160.664 12.416 160.184 12.576C159.704 12.704 159.288 12.864 158.936 13.056V23.616C159.32 23.808 159.736 23.968 160.184 24.096C160.632 24.224 161.112 24.288 161.624 24.288Z" fill="url(#paint0_linear_47_2171)"/>
<defs>
<linearGradient id="paint0_linear_47_2171" x1="-53.5" y1="-1.5" x2="169.5" y2="30" gradientUnits="userSpaceOnUse">
<stop stop-color="#4D4D4D"/>
<stop offset="1"/>
</linearGradient>
</defs>
</svg>
