<svg width="335" height="21" viewBox="0 0 335 21" fill="none" xmlns="http://www.w3.org/2000/svg">
<line x1="0.741699" y1="9.60889" x2="85.7417" y2="9.60889" stroke="#7B7A7A"/>
<path d="M119.803 10.4529C119.856 10.6022 119.893 10.7729 119.915 10.9649C119.947 11.1462 119.963 11.3329 119.963 11.5249C119.963 11.7169 119.947 11.9089 119.915 12.1009C119.893 12.2822 119.861 12.4422 119.819 12.5809C119.648 13.1782 119.307 13.6796 118.795 14.0849C118.283 14.4796 117.696 14.7676 117.035 14.9489C116.384 15.1302 115.707 15.1942 115.003 15.1409C114.309 15.0876 113.691 14.9116 113.147 14.6129C112.805 14.4209 112.512 14.1862 112.267 13.9089C112.021 13.6316 111.813 13.3222 111.643 12.9809C111.579 12.8636 111.536 12.7302 111.515 12.5809C111.504 12.4209 111.52 12.2716 111.563 12.1329C111.605 11.9836 111.675 11.8556 111.771 11.7489C111.867 11.6316 112 11.5516 112.171 11.5089C112.277 11.4876 112.395 11.4769 112.523 11.4769C112.661 11.4769 112.795 11.4982 112.923 11.5409C113.051 11.5729 113.168 11.6316 113.275 11.7169C113.381 11.7916 113.467 11.8982 113.531 12.0369C113.648 12.2609 113.813 12.4689 114.027 12.6609C114.251 12.8422 114.485 12.9916 114.731 13.1089C115.083 13.2262 115.435 13.2742 115.787 13.2529C116.149 13.2316 116.475 13.1516 116.763 13.0129C117.061 12.8742 117.301 12.6876 117.483 12.4529C117.664 12.2076 117.755 11.9302 117.755 11.6209C117.755 11.3649 117.717 11.1569 117.643 10.9969C117.568 10.8262 117.461 10.6876 117.323 10.5809C117.195 10.4636 117.035 10.3676 116.843 10.2929C116.661 10.2182 116.459 10.1542 116.235 10.1009C115.979 10.0476 115.717 10.0102 115.451 9.98889C115.195 9.96755 114.933 9.94089 114.667 9.90889C114.4 9.87689 114.139 9.83422 113.883 9.78089C113.627 9.72755 113.376 9.64755 113.131 9.54089C112.64 9.33822 112.267 9.02889 112.011 8.61289C111.755 8.19689 111.6 7.74889 111.547 7.26889C111.504 6.78889 111.563 6.31422 111.723 5.84489C111.883 5.36489 112.139 4.95422 112.491 4.61289C112.832 4.30355 113.237 4.08489 113.707 3.95689C114.187 3.81822 114.715 3.73822 115.291 3.71689C115.611 3.70622 115.931 3.71689 116.251 3.74889C116.581 3.78089 116.896 3.83422 117.195 3.90889C117.504 3.98355 117.787 4.07955 118.043 4.19689C118.309 4.31422 118.539 4.45289 118.731 4.61289C118.869 4.71955 119.008 4.86355 119.147 5.04489C119.285 5.21555 119.392 5.40222 119.467 5.60489C119.541 5.79689 119.563 5.98355 119.531 6.16489C119.509 6.34622 119.397 6.50089 119.195 6.62889C119.024 6.73555 118.859 6.78355 118.699 6.77289C118.549 6.75155 118.405 6.70355 118.267 6.62889C118.128 6.54355 117.995 6.44755 117.867 6.34089C117.739 6.23422 117.621 6.13822 117.515 6.05289C117.227 5.83955 116.869 5.69555 116.443 5.62089C116.016 5.54622 115.616 5.53022 115.243 5.57289C115.008 5.60489 114.789 5.65822 114.587 5.73289C114.384 5.80755 114.208 5.90889 114.059 6.03689C113.92 6.16489 113.808 6.32489 113.723 6.51689C113.648 6.69822 113.621 6.90622 113.643 7.14089C113.653 7.31155 113.701 7.45555 113.787 7.57289C113.883 7.69022 113.995 7.78622 114.123 7.86089C114.261 7.93555 114.411 7.99422 114.571 8.03689C114.731 8.07955 114.891 8.11155 115.051 8.13289C115.531 8.19689 116.011 8.24489 116.491 8.27689C116.971 8.30889 117.44 8.41555 117.899 8.59689C118.368 8.77822 118.768 9.02355 119.099 9.33289C119.429 9.64222 119.664 10.0156 119.803 10.4529ZM129.953 13.8929C129.942 14.0742 129.916 14.2662 129.873 14.4689C129.841 14.6716 129.74 14.8369 129.569 14.9649C129.441 15.0716 129.297 15.1356 129.137 15.1569C128.977 15.1782 128.817 15.1676 128.657 15.1249C128.508 15.0929 128.364 15.0396 128.225 14.9649C128.086 14.8796 127.974 14.7782 127.889 14.6609C127.526 14.2129 127.19 13.7542 126.881 13.2849C126.582 12.8049 126.278 12.3249 125.969 11.8449L124.625 9.81289C124.444 9.52489 124.252 9.20489 124.049 8.85289C123.846 8.49022 123.638 8.15422 123.425 7.84489L123.377 13.9569V14.1009C123.377 14.2716 123.345 14.4422 123.281 14.6129C123.228 14.7729 123.132 14.9116 122.993 15.0289C122.886 15.1142 122.748 15.1729 122.577 15.2049C122.31 15.2582 122.086 15.2422 121.905 15.1569C121.734 15.0716 121.596 14.9542 121.489 14.8049C121.393 14.6556 121.324 14.4849 121.281 14.2929C121.249 14.0902 121.244 13.8929 121.265 13.7009V13.4289L121.297 12.1809L121.313 9.86089C121.324 9.51955 121.329 9.17289 121.329 8.82089C121.329 8.45822 121.329 8.09022 121.329 7.71689C121.318 7.25822 121.318 6.77289 121.329 6.26089C121.35 5.74889 121.372 5.26889 121.393 4.82089C121.414 4.57555 121.473 4.36755 121.569 4.19689C121.612 4.04755 121.724 3.91955 121.905 3.81289C122.022 3.73822 122.172 3.69022 122.353 3.66889C122.545 3.64755 122.71 3.65289 122.849 3.68489C122.902 3.70622 122.956 3.73289 123.009 3.76489C123.062 3.78622 123.116 3.81289 123.169 3.84489C123.222 3.88755 123.27 3.93022 123.313 3.97289C123.366 4.01555 123.414 4.06355 123.457 4.11689C123.51 4.17022 123.558 4.22889 123.601 4.29289C123.644 4.34622 123.686 4.39955 123.729 4.45289C123.761 4.51689 123.793 4.57555 123.825 4.62889C123.857 4.68222 123.894 4.73555 123.937 4.78889L124.113 5.04489L127.809 10.8689V9.81289C127.809 9.47155 127.804 9.12489 127.793 8.77289C127.793 8.41022 127.788 8.03689 127.777 7.65289C127.777 7.20489 127.777 6.72489 127.777 6.21289C127.788 5.70089 127.804 5.22089 127.825 4.77289C127.825 4.59155 127.878 4.38355 127.985 4.14889C128.038 4.01022 128.129 3.89822 128.257 3.81289C128.385 3.72755 128.529 3.66889 128.689 3.63689C128.849 3.60489 129.009 3.60489 129.169 3.63689C129.329 3.66889 129.468 3.73289 129.585 3.82889C129.617 3.86089 129.649 3.89822 129.681 3.94089C129.713 3.98355 129.74 4.03155 129.761 4.08489C129.814 4.22355 129.846 4.34622 129.857 4.45289C129.889 4.60222 129.905 4.73555 129.905 4.85289C129.905 6.18622 129.905 7.54622 129.905 8.93289C129.916 10.3196 129.926 11.6796 129.937 13.0129C129.937 13.1622 129.942 13.3116 129.953 13.4609C129.964 13.5996 129.964 13.7436 129.953 13.8929ZM139.537 10.4529C139.59 10.6022 139.628 10.7729 139.649 10.9649C139.681 11.1462 139.697 11.3329 139.697 11.5249C139.697 11.7169 139.681 11.9089 139.649 12.1009C139.628 12.2822 139.596 12.4422 139.553 12.5809C139.382 13.1782 139.041 13.6796 138.529 14.0849C138.017 14.4796 137.43 14.7676 136.769 14.9489C136.118 15.1302 135.441 15.1942 134.737 15.1409C134.044 15.0876 133.425 14.9116 132.881 14.6129C132.54 14.4209 132.246 14.1862 132.001 13.9089C131.756 13.6316 131.548 13.3222 131.377 12.9809C131.313 12.8636 131.27 12.7302 131.249 12.5809C131.238 12.4209 131.254 12.2716 131.297 12.1329C131.34 11.9836 131.409 11.8556 131.505 11.7489C131.601 11.6316 131.734 11.5516 131.905 11.5089C132.012 11.4876 132.129 11.4769 132.257 11.4769C132.396 11.4769 132.529 11.4982 132.657 11.5409C132.785 11.5729 132.902 11.6316 133.009 11.7169C133.116 11.7916 133.201 11.8982 133.265 12.0369C133.382 12.2609 133.548 12.4689 133.761 12.6609C133.985 12.8422 134.22 12.9916 134.465 13.1089C134.817 13.2262 135.169 13.2742 135.521 13.2529C135.884 13.2316 136.209 13.1516 136.497 13.0129C136.796 12.8742 137.036 12.6876 137.217 12.4529C137.398 12.2076 137.489 11.9302 137.489 11.6209C137.489 11.3649 137.452 11.1569 137.377 10.9969C137.302 10.8262 137.196 10.6876 137.057 10.5809C136.929 10.4636 136.769 10.3676 136.577 10.2929C136.396 10.2182 136.193 10.1542 135.969 10.1009C135.713 10.0476 135.452 10.0102 135.185 9.98889C134.929 9.96755 134.668 9.94089 134.401 9.90889C134.134 9.87689 133.873 9.83422 133.617 9.78089C133.361 9.72755 133.11 9.64755 132.865 9.54089C132.374 9.33822 132.001 9.02889 131.745 8.61289C131.489 8.19689 131.334 7.74889 131.281 7.26889C131.238 6.78889 131.297 6.31422 131.457 5.84489C131.617 5.36489 131.873 4.95422 132.225 4.61289C132.566 4.30355 132.972 4.08489 133.441 3.95689C133.921 3.81822 134.449 3.73822 135.025 3.71689C135.345 3.70622 135.665 3.71689 135.985 3.74889C136.316 3.78089 136.63 3.83422 136.929 3.90889C137.238 3.98355 137.521 4.07955 137.777 4.19689C138.044 4.31422 138.273 4.45289 138.465 4.61289C138.604 4.71955 138.742 4.86355 138.881 5.04489C139.02 5.21555 139.126 5.40222 139.201 5.60489C139.276 5.79689 139.297 5.98355 139.265 6.16489C139.244 6.34622 139.132 6.50089 138.929 6.62889C138.758 6.73555 138.593 6.78355 138.433 6.77289C138.284 6.75155 138.14 6.70355 138.001 6.62889C137.862 6.54355 137.729 6.44755 137.601 6.34089C137.473 6.23422 137.356 6.13822 137.249 6.05289C136.961 5.83955 136.604 5.69555 136.177 5.62089C135.75 5.54622 135.35 5.53022 134.977 5.57289C134.742 5.60489 134.524 5.65822 134.321 5.73289C134.118 5.80755 133.942 5.90889 133.793 6.03689C133.654 6.16489 133.542 6.32489 133.457 6.51689C133.382 6.69822 133.356 6.90622 133.377 7.14089C133.388 7.31155 133.436 7.45555 133.521 7.57289C133.617 7.69022 133.729 7.78622 133.857 7.86089C133.996 7.93555 134.145 7.99422 134.305 8.03689C134.465 8.07955 134.625 8.11155 134.785 8.13289C135.265 8.19689 135.745 8.24489 136.225 8.27689C136.705 8.30889 137.174 8.41555 137.633 8.59689C138.102 8.77822 138.502 9.02355 138.833 9.33289C139.164 9.64222 139.398 10.0156 139.537 10.4529ZM149.3 13.4129C149.3 13.2529 149.3 13.1036 149.3 12.9649C149.3 12.8156 149.3 12.6396 149.3 12.4369C149.3 12.2342 149.295 11.9942 149.284 11.7169C149.284 11.4396 149.284 11.0822 149.284 10.6449C149.284 10.2076 149.284 9.68489 149.284 9.07689C149.284 8.45822 149.284 7.71689 149.284 6.85289C149.284 6.67155 149.284 6.50089 149.284 6.34089C149.284 6.17022 149.273 5.99422 149.252 5.81289C149.22 5.62089 149.172 5.49822 149.108 5.44489C149.044 5.39155 148.916 5.36489 148.724 5.36489C148.489 5.36489 148.281 5.36489 148.1 5.36489C147.919 5.36489 147.743 5.36489 147.572 5.36489C147.401 5.36489 147.225 5.36489 147.044 5.36489C146.873 5.36489 146.687 5.36489 146.484 5.36489C146.111 5.36489 145.828 5.26889 145.636 5.07689C145.455 4.88489 145.364 4.63422 145.364 4.32489C145.364 4.09022 145.428 3.90889 145.556 3.78089C145.684 3.64222 145.849 3.54089 146.052 3.47689C146.255 3.41289 146.479 3.37555 146.724 3.36489C146.969 3.34355 147.215 3.33289 147.46 3.33289H149.588C149.641 3.33289 149.695 3.33822 149.748 3.34889C149.812 3.34889 149.871 3.34889 149.924 3.34889C150.18 3.35955 150.431 3.41289 150.676 3.50889C150.761 3.54089 150.841 3.58355 150.916 3.63689C151.001 3.69022 151.071 3.75422 151.124 3.82889C151.231 3.97822 151.289 4.11689 151.3 4.24489C151.311 4.37289 151.327 4.52755 151.348 4.70889C151.359 4.87955 151.364 5.10355 151.364 5.38089C151.375 5.64755 151.38 5.86622 151.38 6.03689C151.465 6.02622 151.545 6.02089 151.62 6.02089C151.695 6.02089 151.764 6.02089 151.828 6.02089H153.044V4.40489C153.044 4.26622 153.044 4.12755 153.044 3.98889C153.044 3.83955 153.06 3.69555 153.092 3.55689C153.113 3.50355 153.129 3.45555 153.14 3.41289C153.161 3.37022 153.183 3.32222 153.204 3.26889C153.268 3.16222 153.332 3.08222 153.396 3.02889C153.46 2.96489 153.551 2.91155 153.668 2.86889C153.764 2.83689 153.86 2.82089 153.956 2.82089C154.308 2.82089 154.575 2.98089 154.756 3.30089C154.799 3.36489 154.831 3.45555 154.852 3.57289C154.873 3.69022 154.889 3.81289 154.9 3.94089C154.911 4.05822 154.916 4.16489 154.916 4.26089C154.916 4.34622 154.916 4.39955 154.916 4.42089V11.9889C154.916 12.7889 154.911 13.3649 154.9 13.7169C154.9 13.9836 154.889 14.1969 154.868 14.3569C154.857 14.5169 154.809 14.7196 154.724 14.9649C154.671 15.1249 154.58 15.2582 154.452 15.3649C154.324 15.4716 154.143 15.5249 153.908 15.5249C153.844 15.5249 153.769 15.5142 153.684 15.4929C153.609 15.4822 153.545 15.4556 153.492 15.4129C153.385 15.3489 153.3 15.2476 153.236 15.1089C153.183 14.9596 153.14 14.8049 153.108 14.6449C153.076 14.4849 153.055 14.3302 153.044 14.1809C153.044 14.0316 153.044 13.9142 153.044 13.8289V11.9409L151.54 11.9089C151.465 11.9089 151.412 11.9036 151.38 11.8929C151.38 11.9036 151.38 11.9676 151.38 12.0849C151.391 12.2022 151.396 12.3462 151.396 12.5169C151.396 12.6876 151.396 12.8742 151.396 13.0769C151.396 13.2689 151.391 13.4502 151.38 13.6209C151.348 14.0049 151.225 14.3142 151.012 14.5489C150.809 14.7836 150.521 14.9009 150.148 14.9009C149.956 14.9009 149.801 14.8529 149.684 14.7569C149.567 14.6609 149.481 14.5382 149.428 14.3889C149.375 14.2396 149.337 14.0796 149.316 13.9089C149.305 13.7276 149.3 13.5622 149.3 13.4129ZM157.732 4.74089C157.753 5.54089 157.759 6.35689 157.748 7.18889C157.737 8.01022 157.732 8.79955 157.732 9.55689V13.5569C157.732 13.8342 157.721 14.1009 157.7 14.3569C157.689 14.6129 157.631 14.8529 157.524 15.0769C157.46 15.2156 157.359 15.3329 157.22 15.4289C157.103 15.5036 157.001 15.5462 156.916 15.5569C156.831 15.5782 156.719 15.5729 156.58 15.5409C156.42 15.5089 156.292 15.4396 156.196 15.3329C156.1 15.2369 156.02 15.1249 155.956 14.9969C155.903 14.8689 155.865 14.7302 155.844 14.5809C155.833 14.4316 155.828 14.2876 155.828 14.1489V4.58089C155.828 4.46355 155.828 4.33022 155.828 4.18089C155.828 4.02089 155.833 3.87155 155.844 3.73289C155.865 3.58355 155.892 3.44489 155.924 3.31689C155.967 3.18889 156.025 3.08755 156.1 3.01289C156.217 2.90622 156.34 2.84222 156.468 2.82089C156.596 2.78889 156.735 2.77289 156.884 2.77289C157.097 2.77289 157.263 2.84755 157.38 2.99689C157.497 3.14622 157.577 3.32755 157.62 3.54089C157.673 3.75422 157.705 3.97289 157.716 4.19689C157.727 4.42089 157.732 4.60222 157.732 4.74089ZM151.54 7.90889C151.465 7.90889 151.412 7.90355 151.38 7.89289V10.0689C151.465 10.0582 151.545 10.0529 151.62 10.0529C151.695 10.0529 151.764 10.0529 151.828 10.0529H153.044V7.94089L151.54 7.90889ZM159.749 13.1889C159.749 12.7089 159.888 12.3089 160.165 11.9889C160.453 11.6689 160.837 11.4182 161.317 11.2369C161.797 11.0449 162.363 10.9116 163.013 10.8369C163.664 10.7622 164.357 10.7249 165.093 10.7249C165.829 10.7249 166.523 10.7516 167.173 10.8049C167.824 10.8582 168.389 10.9756 168.869 11.1569C169.349 11.3276 169.728 11.5729 170.005 11.8929C170.293 12.2129 170.437 12.6449 170.437 13.1889C170.437 13.7222 170.293 14.1489 170.005 14.4689C169.728 14.7889 169.349 15.0342 168.869 15.2049C168.389 15.3862 167.824 15.5036 167.173 15.5569C166.523 15.6209 165.829 15.6529 165.093 15.6529C164.357 15.6529 163.664 15.6209 163.013 15.5569C162.363 15.5036 161.797 15.3862 161.317 15.2049C160.837 15.0342 160.453 14.7889 160.165 14.4689C159.888 14.1489 159.749 13.7222 159.749 13.1889ZM163.829 4.75689C163.829 4.75689 163.824 4.82089 163.813 4.94889C163.813 5.07689 163.813 5.22089 163.813 5.38089C163.813 5.54089 163.813 5.69022 163.813 5.82889C163.824 5.96755 163.829 6.04755 163.829 6.06889C163.883 6.12222 163.979 6.21289 164.117 6.34089C164.256 6.45822 164.373 6.55955 164.469 6.64489C164.576 6.73022 164.683 6.82622 164.789 6.93289C164.907 7.02889 165.024 7.13555 165.141 7.25289C165.216 7.32755 165.285 7.40222 165.349 7.47689C165.413 7.54089 165.472 7.59955 165.525 7.65289C165.728 7.85555 165.931 8.07422 166.133 8.30889C166.336 8.54355 166.475 8.78355 166.549 9.02889C166.581 9.12489 166.587 9.23155 166.565 9.34889C166.544 9.46622 166.475 9.56755 166.357 9.65289C166.176 9.75955 165.984 9.81289 165.781 9.81289C165.547 9.81289 165.323 9.76489 165.109 9.66889C164.896 9.57289 164.725 9.47689 164.597 9.38089C164.395 9.23155 164.208 9.07689 164.037 8.91689C163.867 8.74622 163.696 8.57555 163.525 8.40489C163.408 8.28755 163.275 8.15422 163.125 8.00489C162.976 7.84489 162.827 7.70622 162.677 7.58889L162.245 8.02089C162.171 8.09555 162.096 8.17022 162.021 8.24489C161.947 8.30889 161.877 8.37822 161.813 8.45289C161.675 8.60222 161.531 8.75689 161.381 8.91689C161.232 9.06622 161.061 9.21022 160.869 9.34889C160.432 9.66889 160.021 9.82889 159.637 9.82889C159.584 9.82889 159.536 9.82889 159.493 9.82889C159.461 9.82889 159.419 9.81822 159.365 9.79689C159.131 9.74355 158.976 9.64755 158.901 9.50889C158.827 9.39155 158.8 9.25822 158.821 9.10889C158.853 8.95955 158.901 8.82622 158.965 8.70889C159.051 8.59155 159.147 8.47955 159.253 8.37289C159.36 8.25555 159.467 8.13822 159.573 8.02089C159.669 7.91422 159.819 7.76489 160.021 7.57289C160.235 7.37022 160.448 7.16755 160.661 6.96489C160.875 6.75155 161.072 6.55955 161.253 6.38889C161.435 6.21822 161.547 6.11155 161.589 6.06889V4.75689H160.565C160.437 4.75689 160.288 4.76222 160.117 4.77289C159.947 4.77289 159.776 4.76222 159.605 4.74089C159.445 4.71955 159.296 4.67689 159.157 4.61289C159.019 4.53822 158.917 4.42089 158.853 4.26089C158.8 4.14355 158.763 4.01022 158.741 3.86089C158.731 3.71155 158.741 3.57289 158.773 3.44489C158.816 3.29555 158.912 3.19422 159.061 3.14089C159.211 3.07689 159.355 3.03422 159.493 3.01289C159.515 3.01289 159.6 3.01289 159.749 3.01289C159.909 3.01289 160.08 3.01289 160.261 3.01289C160.443 3.01289 160.613 3.01289 160.773 3.01289C160.933 3.01289 161.029 3.00755 161.061 2.99689H164.805C165.232 2.99689 165.589 3.02355 165.877 3.07689C166.176 3.13022 166.416 3.26355 166.597 3.47689C166.651 3.54089 166.683 3.62622 166.693 3.73289C166.715 3.83955 166.715 3.95155 166.693 4.06889C166.683 4.17555 166.651 4.27689 166.597 4.37289C166.555 4.46889 166.491 4.53822 166.405 4.58089C166.32 4.61289 166.219 4.65022 166.101 4.69289C165.984 4.72489 165.883 4.74622 165.797 4.75689C165.648 4.76755 165.493 4.77289 165.333 4.77289C165.184 4.76222 165.035 4.75689 164.885 4.75689H163.829ZM167.445 7.46089C167.136 7.43955 166.859 7.42355 166.613 7.41289C166.368 7.39155 166.176 7.27422 166.037 7.06089C165.973 6.95422 165.941 6.81555 165.941 6.64489C165.941 6.47422 165.952 6.33022 165.973 6.21289C166.005 6.09555 166.064 5.99955 166.149 5.92489C166.235 5.83955 166.384 5.77022 166.597 5.71689C166.64 5.70622 166.741 5.70089 166.901 5.70089C167.072 5.69022 167.253 5.68489 167.445 5.68489C167.637 5.67422 167.819 5.66889 167.989 5.66889C168.16 5.65822 168.267 5.65289 168.309 5.65289V4.13289C168.299 4.01555 168.293 3.89822 168.293 3.78089C168.304 3.66355 168.325 3.54622 168.357 3.42889C168.379 3.34355 168.4 3.26355 168.421 3.18889C168.443 3.11422 168.491 3.03422 168.565 2.94889C168.651 2.84222 168.768 2.76755 168.917 2.72489C169.077 2.68222 169.248 2.67155 169.429 2.69289C169.589 2.71422 169.733 2.76222 169.861 2.83689C169.989 2.90089 170.08 2.98622 170.133 3.09289C170.197 3.22089 170.235 3.38089 170.245 3.57289C170.267 3.75422 170.277 3.86622 170.277 3.90889V9.39689H170.261C170.261 9.40755 170.256 9.44489 170.245 9.50889C170.235 9.57289 170.213 9.65289 170.181 9.74889C170.149 9.83422 170.101 9.92489 170.037 10.0209C169.973 10.1169 169.888 10.1969 169.781 10.2609C169.632 10.3462 169.467 10.3889 169.285 10.3889C169.104 10.3889 168.928 10.3302 168.757 10.2129C168.629 10.1276 168.539 10.0209 168.485 9.89289C168.421 9.77555 168.379 9.65822 168.357 9.54089C168.336 9.42355 168.32 9.30622 168.309 9.18889V7.46089H167.445ZM168.277 13.1889C168.277 13.0076 168.181 12.8636 167.989 12.7569C167.797 12.6502 167.547 12.5702 167.237 12.5169C166.939 12.4636 166.597 12.4316 166.213 12.4209C165.84 12.3996 165.467 12.3889 165.093 12.3889C164.72 12.3889 164.347 12.3996 163.973 12.4209C163.611 12.4316 163.28 12.4636 162.981 12.5169C162.693 12.5702 162.459 12.6502 162.277 12.7569C162.096 12.8636 162.005 13.0076 162.005 13.1889C162.005 13.3489 162.096 13.4822 162.277 13.5889C162.459 13.6956 162.693 13.7756 162.981 13.8289C163.28 13.8822 163.611 13.9196 163.973 13.9409C164.347 13.9622 164.72 13.9729 165.093 13.9729C165.467 13.9729 165.84 13.9729 166.213 13.9729C166.597 13.9729 166.939 13.9516 167.237 13.9089C167.547 13.8662 167.797 13.7916 167.989 13.6849C168.181 13.5676 168.277 13.4022 168.277 13.1889ZM187.171 12.7409C187.203 12.7516 187.235 12.7569 187.267 12.7569C187.299 12.7462 187.331 12.7409 187.363 12.7409C187.544 12.7622 187.709 12.7996 187.859 12.8529C188.019 12.8956 188.173 12.9809 188.323 13.1089C188.472 13.2582 188.547 13.4449 188.547 13.6689C188.547 13.7862 188.525 13.9142 188.483 14.0529C188.451 14.1809 188.403 14.2822 188.339 14.3569C188.253 14.4422 188.147 14.5062 188.019 14.5489C187.891 14.5916 187.768 14.6236 187.651 14.6449C187.533 14.6556 187.427 14.6609 187.331 14.6609C187.245 14.6609 187.197 14.6609 187.187 14.6609H178.227C178.173 14.6609 178.12 14.6662 178.067 14.6769C178.013 14.6769 177.96 14.6769 177.907 14.6769C177.683 14.6876 177.443 14.6876 177.187 14.6769C176.931 14.6556 176.712 14.5702 176.531 14.4209C176.307 14.2182 176.195 13.9889 176.195 13.7329C176.195 13.5729 176.243 13.4076 176.339 13.2369C176.435 13.0662 176.563 12.9489 176.723 12.8849C176.936 12.7996 177.155 12.7569 177.379 12.7569C177.613 12.7569 177.848 12.7516 178.083 12.7409H178.163C179.187 12.7196 180.232 12.7196 181.299 12.7409L181.283 11.2369H179.619C179.405 11.2369 179.181 11.2369 178.947 11.2369C178.723 11.2369 178.493 11.2316 178.259 11.2209C178.035 11.1996 177.848 11.0876 177.699 10.8849C177.549 10.6822 177.464 10.4422 177.443 10.1649C177.432 10.0689 177.421 9.91422 177.411 9.70089C177.411 9.48755 177.405 9.26355 177.395 9.02889C177.395 8.79422 177.395 8.57555 177.395 8.37289C177.395 8.17022 177.395 8.02622 177.395 7.94089V7.55689C177.384 7.42889 177.384 7.29555 177.395 7.15689C177.416 7.00755 177.475 6.87422 177.571 6.75689C177.709 6.57555 177.901 6.46355 178.147 6.42089C178.403 6.36755 178.648 6.34089 178.883 6.34089C178.936 6.34089 179.021 6.34622 179.139 6.35689C179.267 6.36755 179.368 6.36755 179.443 6.35689H185.123V5.01289H179.283C179.229 5.01289 179.171 5.01822 179.107 5.02889C179.043 5.02889 178.984 5.02889 178.931 5.02889C178.867 5.02889 178.797 5.03422 178.723 5.04489C178.659 5.04489 178.595 5.04489 178.531 5.04489C178.307 5.04489 178.125 5.02355 177.987 4.98089C177.805 4.93822 177.656 4.81555 177.539 4.61289C177.4 4.36755 177.363 4.10622 177.427 3.82889C177.48 3.63689 177.603 3.49289 177.795 3.39689C177.987 3.30089 178.141 3.24222 178.259 3.22089C178.344 3.19955 178.424 3.18889 178.499 3.18889C178.584 3.18889 178.675 3.18889 178.771 3.18889H179.331C179.501 3.18889 179.709 3.19422 179.955 3.20489C180.211 3.20489 180.477 3.20489 180.755 3.20489C181.032 3.20489 181.309 3.20489 181.587 3.20489C181.875 3.19422 182.136 3.18889 182.371 3.18889H185.603C185.784 3.18889 185.965 3.19422 186.147 3.20489C186.328 3.21555 186.504 3.24755 186.675 3.30089C186.931 3.37555 187.096 3.54089 187.171 3.79689C187.245 4.04222 187.283 4.28222 187.283 4.51689V6.62889C187.283 6.71422 187.272 6.82622 187.251 6.96489C187.24 7.10355 187.219 7.24755 187.187 7.39689C187.155 7.54622 187.107 7.69022 187.043 7.82889C186.989 7.95689 186.92 8.04755 186.835 8.10089C186.685 8.18622 186.541 8.23955 186.403 8.26089C186.264 8.27155 186.131 8.27155 186.003 8.26089H179.683V9.54089H186.019C186.115 9.54089 186.205 9.54089 186.291 9.54089C186.387 9.54089 186.477 9.54622 186.563 9.55689C186.723 9.56755 186.867 9.61555 186.995 9.70089C187.133 9.77555 187.229 9.90355 187.283 10.0849C187.336 10.2982 187.325 10.5009 187.251 10.6929C187.187 10.8849 187.059 11.0236 186.867 11.1089C186.739 11.1622 186.605 11.1996 186.467 11.2209C186.339 11.2316 186.216 11.2369 186.099 11.2369H183.347L183.363 12.7409C183.619 12.7409 183.853 12.7409 184.067 12.7409C184.291 12.7302 184.509 12.7249 184.723 12.7249C184.947 12.7249 185.165 12.7302 185.379 12.7409C185.603 12.7409 185.837 12.7409 186.083 12.7409C186.275 12.7516 186.461 12.7516 186.643 12.7409C186.824 12.7196 187 12.7196 187.171 12.7409ZM191.211 5.79689C191.019 5.79689 190.806 5.74889 190.571 5.65289C190.347 5.55689 190.176 5.41289 190.059 5.22089C189.952 5.05022 189.904 4.83155 189.915 4.56489C189.936 4.28755 190.027 4.07955 190.187 3.94089C190.315 3.83422 190.459 3.75955 190.619 3.71689C190.79 3.66355 190.966 3.63155 191.147 3.62089C191.328 3.59955 191.504 3.58889 191.675 3.58889C191.856 3.58889 192.027 3.58889 192.187 3.58889H192.715C192.8 3.57822 192.886 3.57822 192.971 3.58889C193.067 3.58889 193.163 3.58889 193.259 3.58889C193.344 3.58889 193.542 3.58889 193.851 3.58889C194.16 3.58889 194.496 3.58889 194.859 3.58889C195.222 3.58889 195.558 3.58889 195.867 3.58889C196.176 3.58889 196.374 3.58889 196.459 3.58889C196.619 3.59955 196.779 3.60489 196.939 3.60489C197.11 3.59422 197.28 3.58889 197.451 3.58889C197.632 3.58889 197.824 3.59422 198.027 3.60489C198.23 3.61555 198.422 3.64755 198.603 3.70089C198.784 3.75422 198.95 3.83955 199.099 3.95689C199.248 4.06355 199.355 4.22355 199.419 4.43689C199.504 4.72489 199.552 5.01822 199.563 5.31689C199.584 5.60489 199.595 5.91955 199.595 6.26089C199.584 6.50622 199.579 6.70889 199.579 6.86889C199.59 7.01822 199.595 7.21555 199.595 7.46089C199.595 7.57822 199.595 7.69555 199.595 7.81289C199.595 7.93022 199.6 8.04755 199.611 8.16489C199.611 8.30355 199.611 8.45822 199.611 8.62889C199.611 8.79955 199.611 8.97555 199.611 9.15689C199.611 9.32755 199.606 9.49822 199.595 9.66889C199.595 9.83955 199.59 9.99422 199.579 10.1329C199.536 10.2929 199.504 10.4529 199.483 10.6129C199.472 10.7622 199.424 10.9169 199.339 11.0769C199.286 11.1729 199.2 11.2689 199.083 11.3649C199.03 11.4182 198.95 11.4609 198.843 11.4929C198.747 11.5142 198.656 11.5249 198.571 11.5249C198.422 11.5249 198.294 11.5089 198.187 11.4769C197.899 11.3809 197.702 11.2476 197.595 11.0769C197.499 10.9062 197.44 10.6982 197.419 10.4529C197.408 10.3462 197.398 10.1969 197.387 10.0049C197.376 9.81289 197.366 9.61555 197.355 9.41289C197.355 9.21022 197.355 9.02355 197.355 8.85289C197.355 8.68222 197.355 8.55955 197.355 8.48489C197.334 8.13289 197.323 7.81289 197.323 7.52489C197.323 7.22622 197.312 6.90622 197.291 6.56489C197.28 6.46889 197.28 6.37822 197.291 6.29289C197.302 6.19689 197.286 6.10089 197.243 6.00489C197.211 5.93022 197.163 5.88222 197.099 5.86089C197.046 5.82889 196.982 5.81289 196.907 5.81289C196.832 5.80222 196.758 5.80222 196.683 5.81289C196.608 5.81289 196.539 5.80755 196.475 5.79689C196.358 5.78622 196.267 5.78622 196.203 5.79689C196.15 5.79689 196.064 5.79689 195.947 5.79689H192.427C192.363 5.79689 192.288 5.79689 192.203 5.79689C192.118 5.78622 192.032 5.78622 191.947 5.79689C191.83 5.81822 191.707 5.82355 191.579 5.81289C191.451 5.80222 191.328 5.79689 191.211 5.79689ZM190.555 14.5809C190.384 14.5702 190.214 14.5489 190.043 14.5169C189.883 14.4742 189.739 14.4209 189.611 14.3569C189.483 14.2822 189.376 14.1809 189.291 14.0529C189.216 13.9249 189.179 13.7542 189.179 13.5409C189.179 13.3276 189.248 13.1409 189.387 12.9809C189.472 12.8956 189.579 12.8316 189.707 12.7889C189.835 12.7462 189.958 12.7142 190.075 12.6929C190.192 12.6716 190.294 12.6609 190.379 12.6609C190.475 12.6609 190.528 12.6609 190.539 12.6609L199.291 12.6769C199.568 12.6769 199.819 12.6822 200.043 12.6929C200.278 12.6929 200.486 12.7676 200.667 12.9169C200.891 13.1196 201.003 13.3489 201.003 13.6049C201.003 13.7649 200.955 13.9142 200.859 14.0529C200.763 14.1809 200.635 14.2716 200.475 14.3249C200.262 14.4102 200.038 14.4689 199.803 14.5009C199.579 14.5329 199.355 14.5542 199.131 14.5649C198.352 14.5969 197.584 14.6076 196.827 14.5969C196.07 14.5862 195.334 14.5809 194.619 14.5809C193.851 14.5809 193.099 14.5862 192.363 14.5969C191.638 14.6076 191.035 14.6022 190.555 14.5809ZM207.728 3.15689C208.378 3.53022 208.842 4.01022 209.12 4.59689C209.258 4.88489 209.349 5.20489 209.392 5.55689C209.434 5.90889 209.445 6.30355 209.424 6.74089C209.392 7.22089 209.285 7.65289 209.104 8.03689C208.922 8.42089 208.682 8.75155 208.384 9.02889C208.096 9.29555 207.754 9.50355 207.36 9.65289C206.965 9.79155 206.544 9.86089 206.096 9.86089H205.28C205.173 9.86089 205.066 9.86089 204.96 9.86089C204.853 9.85022 204.741 9.83422 204.624 9.81289C204.506 9.81289 204.394 9.79689 204.288 9.76489C204.181 9.73289 204.069 9.70622 203.952 9.68489C203.834 9.63155 203.717 9.57289 203.6 9.50889C203.493 9.44489 203.365 9.37022 203.216 9.28489C202.725 8.96489 202.384 8.53289 202.192 7.98889C202.106 7.74355 202.042 7.48222 202 7.20489C201.957 6.92755 201.936 6.65555 201.936 6.38889C201.936 6.10089 201.957 5.82355 202 5.55689C202.053 5.29022 202.138 5.03422 202.256 4.78889C202.341 4.53289 202.469 4.30889 202.64 4.11689C202.81 3.91422 203.002 3.72222 203.216 3.54089C203.408 3.38089 203.605 3.24755 203.808 3.14089C204.01 3.02355 204.234 2.93289 204.48 2.86889C204.693 2.78355 204.922 2.73022 205.168 2.70889C205.413 2.68755 205.648 2.68755 205.872 2.70889C205.989 2.74089 206.085 2.76222 206.16 2.77289C206.245 2.77289 206.325 2.77289 206.4 2.77289C206.485 2.79422 206.56 2.81022 206.624 2.82089C206.698 2.82089 206.768 2.83689 206.832 2.86889C206.906 2.89022 206.976 2.91155 207.04 2.93289C207.114 2.94355 207.184 2.96489 207.248 2.99689C207.312 3.01822 207.386 3.04489 207.472 3.07689C207.557 3.10889 207.642 3.13555 207.728 3.15689ZM213.072 13.6529C213.221 13.6529 213.344 13.7169 213.44 13.8449C213.536 13.9729 213.6 14.1276 213.632 14.3089C213.653 14.5222 213.642 14.6982 213.6 14.8369C213.557 14.9649 213.493 15.0876 213.408 15.2049C213.248 15.3436 213.109 15.4289 212.992 15.4609C212.938 15.4609 212.89 15.4716 212.848 15.4929C212.805 15.5142 212.746 15.5249 212.672 15.5249H211.52H209.52H207.328H205.584H204.848C204.624 15.5249 204.426 15.5196 204.256 15.5089C204.096 15.4982 203.952 15.4609 203.824 15.3969C203.706 15.3329 203.61 15.2369 203.536 15.1089C203.472 14.9916 203.44 14.8742 203.44 14.7569V12.3089V12.0049V11.6849V11.4609C203.504 11.2262 203.61 11.0502 203.76 10.9329C203.877 10.8582 203.984 10.8049 204.08 10.7729C204.186 10.7302 204.304 10.7089 204.432 10.7089C204.453 10.7089 204.517 10.7196 204.624 10.7409C204.741 10.7516 204.816 10.7569 204.848 10.7569C204.912 10.7782 204.97 10.8049 205.024 10.8369C205.088 10.8582 205.146 10.9062 205.2 10.9809C205.221 11.0236 205.248 11.0716 205.28 11.1249C205.312 11.1676 205.338 11.2209 205.36 11.2849C205.392 11.3596 205.408 11.4289 205.408 11.4929C205.418 11.5569 205.434 11.6209 205.456 11.6849V12.0849V12.3889V12.9009V13.3809V13.6049H205.776C205.84 13.6156 205.914 13.6209 206 13.6209C206.074 13.6316 206.154 13.6369 206.24 13.6369C206.325 13.6369 206.421 13.6369 206.528 13.6369C206.592 13.6369 206.752 13.6369 207.008 13.6369C207.274 13.6369 207.589 13.6369 207.952 13.6369C208.325 13.6262 208.73 13.6209 209.168 13.6209C209.605 13.6209 210.021 13.6209 210.416 13.6209C210.821 13.6209 211.184 13.6262 211.504 13.6369C211.834 13.6369 212.08 13.6369 212.24 13.6369H212.64C212.661 13.6369 212.709 13.6422 212.784 13.6529C212.858 13.6529 212.954 13.6529 213.072 13.6529ZM207.504 6.24489C207.482 6.12755 207.461 6.02622 207.44 5.94089C207.418 5.84489 207.397 5.74889 207.376 5.65289C207.322 5.56755 207.274 5.48222 207.232 5.39689C207.189 5.31155 207.13 5.23689 207.056 5.17289C206.992 5.10889 206.917 5.05555 206.832 5.01289C206.746 4.95955 206.645 4.90622 206.528 4.85289C206.389 4.82089 206.256 4.79422 206.128 4.77289C206 4.74089 205.866 4.72489 205.728 4.72489C205.578 4.72489 205.434 4.74089 205.296 4.77289C205.157 4.79422 205.029 4.82089 204.912 4.85289C204.784 4.92755 204.661 5.00222 204.544 5.07689C204.437 5.15155 204.341 5.24755 204.256 5.36489C204.149 5.45022 204.069 5.56222 204.016 5.70089C203.962 5.82889 203.909 5.98355 203.856 6.16489C203.856 6.28222 203.856 6.39422 203.856 6.50089C203.856 6.60755 203.866 6.71955 203.888 6.83689C203.888 6.94355 203.909 7.05022 203.952 7.15689C203.994 7.26355 204.048 7.35955 204.112 7.44489C204.186 7.54089 204.266 7.62622 204.352 7.70089C204.437 7.76489 204.528 7.82889 204.624 7.89289C204.741 7.95689 204.864 8.01555 204.992 8.06889C205.12 8.11155 205.274 8.14355 205.456 8.16489C205.573 8.16489 205.685 8.16489 205.792 8.16489C205.898 8.15422 206.01 8.13822 206.128 8.11689C206.341 8.11689 206.549 8.05822 206.752 7.94089C206.837 7.89822 206.922 7.84489 207.008 7.78089C207.104 7.70622 207.184 7.62622 207.248 7.54089C207.386 7.34889 207.472 7.14089 207.504 6.91689V6.24489ZM213.536 9.50889C213.536 9.61555 213.525 9.72222 213.504 9.82889C213.482 9.93555 213.461 10.0476 213.44 10.1649C213.344 10.5062 213.12 10.7142 212.768 10.7889C212.426 10.8636 212.149 10.7889 211.936 10.5649C211.733 10.3409 211.61 10.0742 211.568 9.76489C211.546 9.67955 211.53 9.59422 211.52 9.50889C211.52 9.41289 211.52 9.32222 211.52 9.23689V8.69289L211.568 4.56489C211.568 4.41555 211.562 4.25555 211.552 4.08489C211.552 3.90355 211.562 3.73289 211.584 3.57289C211.616 3.40222 211.674 3.24755 211.76 3.10889C211.845 2.97022 211.978 2.85822 212.16 2.77289C212.245 2.71955 212.336 2.69289 212.432 2.69289C212.538 2.68222 212.65 2.68755 212.768 2.70889C213.013 2.74089 213.194 2.84222 213.312 3.01289C213.44 3.18355 213.514 3.38089 213.536 3.60489V4.14889V9.50889Z" fill="black"/>
<line x1="239.742" y1="9.60889" x2="334.742" y2="9.60889" stroke="#7B7A7A"/>
</svg>
